<svg width="720" height="420" viewBox="0 0 720 420" fill="none" xmlns="http://www.w3.org/2000/svg">
  <g clip-path="url(#clip0)">
    <rect width="720" height="420" rx="28" fill="#E8E8E8"/>
    <path d="M-40 98C74 90 149 36 230 20C316 2 421 26 489 66C551 101 616 125 698 118C780 111 810 174 824 214L822 440H-44L-40 98Z" fill="#F1F1F1"/>
    <path d="M-14 352C65 347 151 298 222 289C304 278 341 322 415 320C510 318 555 280 631 272C704 265 793 320 823 347L822 440H-44L-14 352Z" fill="#EFEFEF"/>
    <path d="M114 172C154 148 233 135 281 169C314 193 317 226 279 258C244 286 176 301 132 284C83 265 74 218 114 172Z" fill="#B4E3A8"/>
    <path d="M512 74C549 52 611 50 649 78C679 100 684 137 651 170C625 196 565 213 528 201C482 186 470 126 512 74Z" fill="#B4E3A8"/>
    <path d="M438 274C474 250 539 246 581 272C610 290 623 323 598 352C579 374 530 393 495 390C457 387 409 363 412 332C414 308 419 289 438 274Z" fill="#B4E3A8"/>
    <path d="M148 48C195 32 255 28 291 60C321 86 325 129 284 158C251 182 188 194 151 180C110 164 97 110 148 48Z" fill="#C9F1FF"/>
    <path d="M398 22C445 8 507 6 547 36C579 60 583 101 546 134C516 161 455 176 417 162C372 146 361 93 398 22Z" fill="#C9F1FF"/>
    <path d="M350 -12C389 26 388 104 320 140C266 169 175 183 125 170" stroke="#FFFFFF" stroke-width="10" stroke-linecap="round"/>
    <path d="M522 456C514 359 458 290 377 258C310 231 219 232 141 257" stroke="#FFFFFF" stroke-width="10" stroke-linecap="round"/>
    <path d="M-26 246C62 240 127 214 192 176C258 137 328 88 392 84C455 80 522 121 591 154C657 185 733 207 800 196" stroke="#D0D0D0" stroke-width="7" stroke-linecap="round"/>
    <path d="M102 332C159 314 231 308 277 320C322 332 347 360 379 386" stroke="#D0D0D0" stroke-width="7" stroke-linecap="round"/>
    <path d="M456 92C498 138 516 190 500 234C484 280 437 312 399 330" stroke="#D0D0D0" stroke-width="7" stroke-linecap="round"/>
    <path d="M272 226C329 216 370 188 401 166C437 140 463 120 493 106" stroke="#FFFFFF" stroke-width="6" stroke-linecap="round"/>
    <path d="M612 302C579 282 541 272 506 266C469 260 434 262 401 270" stroke="#FFFFFF" stroke-width="6" stroke-linecap="round"/>
    <path d="M346 122C347 151 323 182 288 201C255 220 212 229 178 228" stroke="#FFFFFF" stroke-width="6" stroke-linecap="round"/>
    <path d="M88 212C132 202 190 196 232 200" stroke="#FFFFFF" stroke-width="6" stroke-linecap="round"/>
    <path d="M420 182C458 187 498 201 536 222C574 243 610 272 651 292" stroke="#FFFFFF" stroke-width="6" stroke-linecap="round"/>
    <path d="M320 340C279 330 247 326 210 326C178 326 143 332 116 338" stroke="#FFFFFF" stroke-width="6" stroke-linecap="round"/>
    <path d="M360 204C363 238 340 280 302 306C267 329 225 338 185 338" stroke="#DADADA" stroke-width="7" stroke-linecap="round"/>
    <path d="M490 200C527 198 578 218 600 242" stroke="#DADADA" stroke-width="7" stroke-linecap="round"/>
    <path d="M354 258C372 241 400 224 428 220" stroke="#DADADA" stroke-width="7" stroke-linecap="round"/>
    <path d="M342 88C323 105 290 132 252 142" stroke="#DADADA" stroke-width="7" stroke-linecap="round"/>
    <g filter="url(#shadow)">
      <path d="M360 208C379.882 208 396 224.118 396 244C395.96 258.863 385.725 275.536 370.712 293.341C368.549 295.946 365.361 297.5 362 297.5C358.639 297.5 355.451 295.946 353.288 293.341C338.275 275.536 328.04 258.863 328 244C328 224.118 344.118 208 364 208H360Z" fill="#0D2B49"/>
      <circle cx="362" cy="244" r="11" fill="white"/>
      <circle cx="362" cy="244" r="6" fill="#0D2B49"/>
    </g>
  </g>
  <defs>
    <filter id="shadow" x="320" y="204" width="88" height="105.5" filterUnits="userSpaceOnUse" color-interpolation-filters="sRGB">
      <feFlood flood-opacity="0" result="BackgroundImageFix"/>
      <feColorMatrix in="SourceAlpha" type="matrix" values="0 0 0 0 0 0 0 0 0 0 0 0 0 0 0 0 0 0 127 0" result="hardAlpha"/>
      <feOffset dy="4"/>
      <feGaussianBlur stdDeviation="6"/>
      <feColorMatrix type="matrix" values="0 0 0 0 0.0509804 0 0 0 0 0.168627 0 0 0 0 0.286275 0 0 0 0.14 0"/>
      <feBlend mode="normal" in2="BackgroundImageFix" result="effect1_dropShadow"/>
      <feBlend mode="normal" in="SourceGraphic" in2="effect1_dropShadow" result="shape"/>
    </filter>
    <clipPath id="clip0">
      <rect width="720" height="420" rx="28" fill="white"/>
    </clipPath>
  </defs>
</svg>
