<svg width="23" height="23" viewBox="0 0 23 23" fill="none" xmlns="http://www.w3.org/2000/svg">
<path fill-rule="evenodd" clip-rule="evenodd" d="M11.111 1.15723C12.2619 1.15723 13.1943 2.08997 13.1943 3.24056C13.1943 4.14765 12.6147 4.91936 11.8054 5.20536V6.71278L12.8181 6.71363C13.7533 6.71707 14.5354 6.73433 15.1777 6.82067C16.011 6.93271 16.7128 7.17246 17.2702 7.72978C17.8276 8.28711 18.0665 8.98883 18.1786 9.82227C18.2869 10.625 18.2869 11.7473 18.2869 13.0136C18.2869 14.2799 18.2869 15.3006 18.1786 16.1034C18.0665 16.9368 17.8276 17.6384 17.2702 18.1958C16.7128 18.7532 16.011 18.9929 15.1777 19.1049C14.3749 19.2128 13.3535 19.2128 12.0878 19.2128H11.5568C11.4274 19.4347 11.2302 19.7015 10.9358 19.9633C10.2674 20.5573 9.16837 21.0646 7.40726 21.0646C7.12689 21.0646 6.87409 20.8961 6.76622 20.6373C6.65844 20.3787 6.7167 20.0806 6.91383 19.8815C6.98726 19.7951 7.19404 19.5501 7.2909 19.4035C7.34682 19.319 7.39761 19.2337 7.44224 19.1492C6.42011 19.0597 5.58771 18.8315 4.95206 18.1958C4.39465 17.6384 4.15496 16.9368 4.04292 16.1034C3.95662 15.4611 3.93933 14.6795 3.93588 13.7441L3.93566 12.3382C3.93857 11.3498 3.95466 10.4791 4.04292 9.82227C4.15496 8.98883 4.39465 8.28711 4.95206 7.72978C5.50938 7.17246 6.21103 6.93271 7.04455 6.82067C7.6867 6.73433 8.46836 6.71707 9.40367 6.71363L10.4165 6.71278V5.20536C9.60735 4.91936 9.02763 4.14765 9.02763 3.24056C9.02763 2.08997 9.96041 1.15723 11.111 1.15723ZM13.5183 14.8609C13.2906 14.5572 12.8619 14.4932 12.5554 14.7153C12.5073 14.7425 12.3749 14.8143 12.2563 14.8589C12.02 14.9474 11.6395 15.0461 11.111 15.0461C10.5825 15.0461 10.202 14.9474 9.96599 14.8589C9.84728 14.8143 9.71506 14.7425 9.66663 14.7153C9.36034 14.4932 8.93145 14.5572 8.70358 14.8609C8.47348 15.1678 8.53567 15.6031 8.84243 15.8332L8.85724 15.843C8.89974 15.8709 8.98793 15.9291 9.03441 15.9553C9.14034 16.0148 9.28827 16.0881 9.47827 16.1594C9.85957 16.3023 10.4049 16.435 11.111 16.435C11.8171 16.435 12.3628 16.3023 12.7434 16.1594C12.9341 16.0881 13.0813 16.0148 13.1878 15.9553C13.2341 15.9291 13.3221 15.8709 13.3647 15.843L13.3795 15.8332C13.686 15.6031 13.7489 15.1678 13.5183 14.8609ZM9.02763 11.1109C9.02763 10.7274 8.7167 10.4165 8.33318 10.4165C7.94967 10.4165 7.63874 10.7274 7.63874 11.1109L7.63874 12.0369C7.63874 12.4204 7.94967 12.7313 8.33318 12.7313C8.7167 12.7313 9.02763 12.4204 9.02763 12.0369L9.02763 11.1109ZM14.5832 11.1109C14.5832 10.7274 14.2721 10.4165 13.8887 10.4165C13.5054 10.4165 13.1943 10.7274 13.1943 11.1109V12.0369C13.1943 12.4204 13.5054 12.7313 13.8887 12.7313C14.2721 12.7313 14.5832 12.4204 14.5832 12.0369V11.1109ZM2.85771 10.0078C2.63243 10.0445 2.41087 10.1096 2.19892 10.2319C1.88226 10.4148 1.61919 10.6778 1.43632 10.9945C1.27216 11.279 1.21096 11.5808 1.18337 11.8856C1.15726 12.1738 1.15726 12.5847 1.15726 12.9919C1.15726 13.3992 1.15726 13.7505 1.18337 14.0386C1.21096 14.3434 1.27216 14.6453 1.43632 14.9297C1.61919 15.2464 1.88226 15.5095 2.19892 15.6922C2.41059 15.8145 2.63178 15.8795 2.85669 15.9163C2.77752 15.1026 2.77754 14.1397 2.77763 13.0832C2.77754 12.0224 2.77752 10.8692 2.85771 10.0078ZM20.023 15.6922C19.8119 15.8145 19.5906 15.8795 19.3656 15.9163C19.4452 15.1026 19.4452 14.1397 19.4452 13.0832C19.4452 12.0223 19.4452 10.8692 19.3647 10.0078C19.5897 10.0445 19.8119 10.1096 20.023 10.2319C20.3406 10.4148 20.6035 10.6778 20.7859 10.9945C20.9498 11.279 21.0109 11.5808 21.0387 11.8856C21.0656 12.1738 21.0656 12.5847 21.0647 12.9919C21.0656 13.3992 21.0656 13.7505 21.0387 14.0386C21.0109 14.3434 20.9498 14.6453 20.7859 14.9297C20.6035 15.2464 20.3406 15.5095 20.023 15.6922Z" fill="#003F6F"/>
</svg>
