<svg width="32" height="32" viewBox="0 0 32 32" fill="none" xmlns="http://www.w3.org/2000/svg">
<g clip-path="url(#clip0_2343_4902)">
<path fill-rule="evenodd" clip-rule="evenodd" d="M5.81818 0C4.2751 0 2.79523 0.612985 1.70411 1.70411C0.612985 2.79523 0 4.2751 0 5.81818V26.1818C0 27.7249 0.612985 29.2048 1.70411 30.2959C2.79523 31.387 4.2751 32 5.81818 32H26.1818C27.7249 32 29.2048 31.387 30.2959 30.2959C31.387 29.2048 32 27.7249 32 26.1818V5.81818C32 4.2751 31.387 2.79523 30.2959 1.70411C29.2048 0.612985 27.7249 0 26.1818 0H5.81818ZM15.2727 8.39709C15.2727 5.22327 16.8596 3.63636 20.0335 3.63636C20.0335 6.81018 18.4465 8.39709 15.2727 8.39709ZM11.3964 9.45455C12.4116 9.45455 13.1898 9.81236 13.8691 10.1236C14.3971 10.3651 14.864 10.5804 15.3382 10.5804C15.8124 10.5804 16.3869 10.3651 17.0356 10.1236C17.8705 9.81236 18.8276 9.45455 19.8429 9.45455C21.1215 9.45455 22.7622 10.1804 23.9418 11.6305C23.2873 12.0611 21.9782 13.3469 21.9782 16.2124C21.9782 18.4305 23.8458 20.1775 24.7796 20.5164C23.7644 23.8793 21.7833 26.9091 19.8429 26.9091C18.9993 26.9091 18.2938 26.6269 17.5898 26.3462C16.8873 26.064 16.1833 25.7833 15.3382 25.7833C14.4945 25.7833 13.9302 26.064 13.3673 26.3462C12.8044 26.6284 12.2415 26.9091 11.3964 26.9091C8.62109 26.9091 5.76727 20.7156 5.76727 16.2109C5.76727 11.7062 9.14473 9.45455 11.3964 9.45455Z" fill="black"/>
</g>
<defs>
<clipPath id="clip0_2343_4902">
<rect width="32" height="32" fill="white"/>
</clipPath>
</defs>
</svg>
