<svg width="14" height="8" viewBox="0 0 14 8" fill="none" xmlns="http://www.w3.org/2000/svg">
<path d="M1.35372 0.305285C1.4756 0.466659 1.83951 0.948403 2.05624 1.22611C2.49031 1.78233 3.08342 2.52142 3.72323 3.25831C4.36627 3.99893 5.04178 4.72022 5.64189 5.25046C5.94281 5.51634 6.20714 5.71837 6.42527 5.84987C6.63042 5.97355 6.75161 5.99927 6.75161 5.99927C6.75161 5.99927 6.86923 5.97355 7.07437 5.84988C7.2925 5.71838 7.55684 5.51635 7.85775 5.25047C8.45786 4.72022 9.13337 3.99892 9.77641 3.2583C10.4162 2.5214 11.0093 1.7823 11.4434 1.22608C11.6601 0.948367 12.0235 0.467304 12.1454 0.305928C12.3911 -0.0275946 12.8611 -0.0995308 13.1946 0.146102C13.5281 0.391734 13.5994 0.861233 13.3537 1.19476L13.3518 1.1973C13.224 1.36655 12.8471 1.86556 12.6259 2.14892C12.1821 2.7177 11.5716 3.47861 10.9091 4.24171C10.2497 5.00109 9.52408 5.77979 8.85096 6.37454C8.51526 6.67116 8.17497 6.93788 7.8488 7.1345C7.54322 7.31872 7.15633 7.5 6.74982 7.5C6.34331 7.5 5.95642 7.31871 5.65084 7.1345C5.32468 6.93787 4.98439 6.67116 4.64869 6.37454C3.97557 5.77979 3.2499 5.0011 2.59058 4.24173C1.92803 3.47863 1.3176 2.71774 0.873719 2.14896C0.652432 1.86541 0.275506 1.36637 0.147929 1.19747L0.146279 1.19528C-0.0993552 0.861762 -0.0284597 0.391787 0.305062 0.146152C0.638572 -0.099474 1.10808 -0.0282083 1.35372 0.305285Z" fill="#161616"/>
</svg>
