<svg width="8" height="14" viewBox="0 0 8 14" fill="none" xmlns="http://www.w3.org/2000/svg">
<path d="M7.19471 1.35372C7.03334 1.4756 6.5516 1.83951 6.27389 2.05624C5.71767 2.49031 4.97858 3.08342 4.24169 3.72323C3.50107 4.36627 2.77978 5.04178 2.24954 5.64189C1.98366 5.94281 1.78162 6.20714 1.65013 6.42527C1.52645 6.63042 1.50073 6.75161 1.50073 6.75161C1.50073 6.75161 1.52645 6.86923 1.65012 7.07437C1.78162 7.2925 1.98365 7.55684 2.24953 7.85775C2.77978 8.45786 3.50108 9.13337 4.2417 9.77641C4.9786 10.4162 5.7177 11.0093 6.27392 11.4434C6.55163 11.6601 7.0327 12.0235 7.19407 12.1454C7.52759 12.3911 7.59953 12.8611 7.3539 13.1946C7.10826 13.5281 6.63877 13.5994 6.30524 13.3537L6.3027 13.3518C6.13345 13.224 5.63443 12.8471 5.35108 12.6259C4.7823 12.1821 4.02139 11.5716 3.25829 10.9091C2.49891 10.2497 1.72021 9.52408 1.12546 8.85096C0.828839 8.51526 0.562122 8.17497 0.365496 7.8488C0.18128 7.54322 -3.45702e-06 7.15633 0 6.74982C3.45712e-06 6.34331 0.181287 5.95642 0.365502 5.65084C0.562128 5.32468 0.828844 4.98439 1.12546 4.64869C1.72021 3.97557 2.4989 3.2499 3.25827 2.59058C4.02137 1.92803 4.78226 1.3176 5.35104 0.873719C5.63459 0.652433 6.13363 0.275507 6.30253 0.147929L6.30472 0.14628C6.63824 -0.0993549 7.10821 -0.0284594 7.35385 0.305062C7.59947 0.638573 7.52821 1.10808 7.19471 1.35372Z" fill="#5F5F5F"/>
</svg>
