<svg width="16" height="16" viewBox="0 0 16 16" fill="none" xmlns="http://www.w3.org/2000/svg">
<path fill-rule="evenodd" clip-rule="evenodd" d="M12.4551 0.857874C12.0773 0.935958 11.7765 1.18978 11.5895 1.52514L10.9941 2.59343C10.7747 2.9869 10.5901 3.31803 10.4696 3.60587C10.3417 3.91122 10.2658 4.21232 10.3005 4.54523C10.3352 4.87814 10.4717 5.1571 10.6598 5.42949C10.8371 5.68627 11.086 5.97219 11.3818 6.31194L12.8671 8.01796C11.6892 9.94861 9.94989 11.6887 8.01725 12.8678L6.31123 11.3825C5.97148 11.0867 5.68557 10.8378 5.42878 10.6605C5.15639 10.4724 4.87743 10.3359 4.54453 10.3012C4.21162 10.2665 3.91051 10.3424 3.60517 10.4703C3.31732 10.5908 2.98619 10.7754 2.59272 10.9948L1.52443 11.5902C1.18908 11.7772 0.935251 12.078 0.857168 12.4558C0.778272 12.8376 0.894651 13.2213 1.15168 13.5366C2.08428 14.6809 3.57847 15.4094 5.14595 15.0932C6.10946 14.8989 7.06012 14.575 8.20992 13.9156C10.5202 12.5907 12.5915 10.5182 13.9149 8.21063C14.5743 7.06082 14.8981 6.11017 15.0925 5.14666C15.4087 3.57917 14.6801 2.08499 13.5359 1.15239C13.2206 0.895357 12.8369 0.778976 12.4551 0.857874ZM7.08583 13.3828C6.30825 13.7659 5.63193 13.975 4.94821 14.113C3.81751 14.341 2.676 13.824 1.92683 12.9048C1.82846 12.7841 1.82786 12.6999 1.83647 12.6582C1.8459 12.6126 1.88408 12.5346 2.01131 12.4637L3.05565 11.8816C3.47941 11.6454 3.76152 11.489 3.99144 11.3927C4.20968 11.3013 4.33492 11.2848 4.44081 11.2958C4.5467 11.3069 4.66583 11.3489 4.86052 11.4833C5.06562 11.625 5.30939 11.8362 5.6753 12.1548L7.08583 13.3828ZM13.3821 7.08654L12.1541 5.67601C11.8355 5.3101 11.6243 5.06633 11.4826 4.86122C11.3482 4.66653 11.3061 4.5474 11.2951 4.44151C11.2841 4.33562 11.3006 4.21038 11.392 3.99214C11.4883 3.76223 11.6447 3.48012 11.8809 3.05635L12.463 2.01201C12.5339 1.88478 12.6119 1.8466 12.6575 1.83718C12.6992 1.82856 12.7834 1.82917 12.9041 1.92753C13.8233 2.67671 14.3403 3.81822 14.1123 4.94892C13.9743 5.63264 13.7652 6.30895 13.3821 7.08654Z" fill="white"/>
</svg>
