<svg width="13" height="15" viewBox="0 0 13 15" fill="none" xmlns="http://www.w3.org/2000/svg">
<path fill-rule="evenodd" clip-rule="evenodd" d="M7.204 0C8.42934 0 9.40001 0 10.1593 0.1C10.9407 0.206667 11.5733 0.426693 12.0727 0.926693C12.5713 1.42669 12.7927 2.05997 12.898 2.83997C13 3.59997 13 4.57336 13 5.79336V8.53997C13 9.75997 13 10.7334 12.898 11.4934C12.7927 12.2734 12.5713 12.9066 12.0727 13.4066C11.5733 13.9066 10.9407 14.1267 10.1593 14.2333C9.40001 14.3333 8.42934 14.3333 7.204 14.3333H5.796C4.57066 14.3333 3.59999 14.3333 2.84066 14.2333C2.05932 14.1267 1.42668 13.9066 0.927344 13.4066C0.428677 12.9066 0.207319 12.2734 0.101986 11.4934C-1.4321e-05 10.7334 0 9.75997 0 8.53997L0 5.79336C0 4.57336 -1.4321e-05 3.59997 0.101986 2.83997C0.207319 2.05997 0.428677 1.42669 0.927344 0.926693C1.42668 0.426693 2.05932 0.206667 2.84066 0.1C3.59999 0 4.57066 0 5.796 0L7.204 0ZM7.11999 8.09336C7.31532 8.28669 7.63199 8.28669 7.82666 8.09336L9.51999 6.4C9.71532 6.20667 9.71532 5.88669 9.51999 5.69336C9.41132 5.58669 9.26534 5.54001 9.12334 5.54668C9.07134 5.55335 9.018 5.54 8.98467 5.5C8.956 5.46 8.92533 5.42665 8.89333 5.38665C8.62266 5.06665 8.25732 4.63997 7.89066 4.27331C7.52332 3.90664 7.10335 3.54664 6.77868 3.27331C6.74068 3.23997 6.70399 3.21335 6.66865 3.18001C6.62865 3.14668 6.61265 3.09331 6.61732 3.03997C6.62932 2.89997 6.58132 2.75335 6.47266 2.64668C6.27732 2.45335 5.96067 2.45335 5.76533 2.64668L4.07201 4.33997C3.87667 4.53331 3.87667 4.85335 4.07201 5.04668C4.18067 5.15335 4.32665 5.20669 4.46865 5.19336C4.52065 5.18669 4.57466 5.19997 4.60732 5.23997C4.63666 5.27997 4.66733 5.31332 4.69867 5.35332C4.83267 5.51332 4.98934 5.69999 5.15801 5.88665C5.20534 5.93999 5.20399 6.01997 5.15332 6.07331L3.52868 7.69336C3.26801 7.95336 3.26801 8.37997 3.52868 8.63997C3.78868 8.89997 4.21132 8.89997 4.47132 8.63997L6.096 7.01335C6.14666 6.96001 6.22735 6.95997 6.28001 7.00664C6.46935 7.17997 6.65335 7.33333 6.81335 7.46667C6.85135 7.5 6.88867 7.52669 6.92334 7.56003C6.96401 7.59336 6.97999 7.64667 6.97533 7.7C6.96333 7.84 7.01132 7.98669 7.11999 8.09336ZM3.83333 10.5C3.46533 10.5 3.16667 10.8 3.16667 11.1667C3.16667 11.5333 3.46533 11.8333 3.83333 11.8333H9.16667C9.53467 11.8333 9.83333 11.5333 9.83333 11.1667C9.83333 10.8 9.53467 10.5 9.16667 10.5H3.83333Z" fill="#003E6F"/>
</svg>
