<svg width="22" height="22" viewBox="0 0 22 22" fill="none" xmlns="http://www.w3.org/2000/svg">
<path d="M11.7539 1.00195C12.168 1.00411 12.502 1.34179 12.5 1.75586C12.498 2.17007 12.1603 2.50399 11.7461 2.50195C11.2782 2.49965 10.781 2.5 10.25 2.5C7.98963 2.5 6.3696 2.50137 5.1377 2.66699C3.92747 2.82972 3.2049 3.13885 2.67188 3.67188C2.13885 4.2049 1.82972 4.92747 1.66699 6.1377C1.50137 7.3696 1.5 8.98963 1.5 11.25C1.5 13.5104 1.50137 15.1304 1.66699 16.3623C1.82972 17.5725 2.13885 18.2951 2.67188 18.8281C3.2049 19.3611 3.92747 19.6703 5.1377 19.833C6.3696 19.9986 7.98963 20 10.25 20C12.5104 20 14.1304 19.9986 15.3623 19.833C16.5725 19.6703 17.2951 19.3611 17.8281 18.8281C18.3611 18.2951 18.6703 17.5725 18.833 16.3623C18.9986 15.1304 19 13.5104 19 11.25C19 10.719 19.0003 10.2218 18.998 9.75391C18.996 9.3397 19.3299 9.00204 19.7441 9C20.1582 8.99804 20.4959 9.33203 20.498 9.74609C20.5004 10.218 20.5 10.7193 20.5 11.249V11.3076C20.5 13.4979 20.4999 15.2183 20.3193 16.5615C20.1342 17.9382 19.7469 19.0305 18.8887 19.8887C18.0305 20.7469 16.9382 21.1342 15.5615 21.3193C14.2183 21.4999 12.4979 21.5 10.3076 21.5H10.1924C8.00212 21.5 6.28174 21.4999 4.93848 21.3193C3.56182 21.1342 2.46953 20.7469 1.61133 19.8887C0.75313 19.0305 0.365751 17.9382 0.180664 16.5615C0.000117099 15.2183 -1.35863e-05 13.4979 0 11.3076V11.1924C-1.35863e-05 9.00212 0.0001171 7.28174 0.180664 5.93848C0.365751 4.56182 0.75313 3.46953 1.61133 2.61133C2.46953 1.75313 3.56182 1.36575 4.93848 1.18066C6.28174 1.00012 8.00213 0.999986 10.1924 1H10.251C10.7808 1 11.282 0.999629 11.7539 1.00195ZM5.20801 15.7324C7.82101 12.9957 12.6344 12.848 15.3018 15.7422C15.5821 16.0468 15.5623 16.5212 15.2578 16.8018C14.9532 17.0821 14.4788 17.0623 14.1982 16.7578C12.152 14.5381 8.34228 14.6201 6.29199 16.7676C6.00595 17.0671 5.53199 17.078 5.23242 16.792C4.93288 16.5059 4.92199 16.032 5.20801 15.7324ZM10.2412 5.5C12.0371 5.5 13.4951 6.95407 13.4951 8.75C13.4951 10.5459 12.0371 12 10.2412 12C8.44547 11.9998 6.98828 10.5458 6.98828 8.75C6.98828 6.95417 8.44547 5.50017 10.2412 5.5ZM10.2412 7C9.27189 7.00017 8.48828 7.78462 8.48828 8.75C8.48828 9.71538 9.27189 10.4998 10.2412 10.5C11.2107 10.5 11.9951 9.71549 11.9951 8.75C11.9951 7.78451 11.2107 7 10.2412 7ZM17.25 0C17.5637 -9.17219e-08 17.8441 0.195207 17.9531 0.489258L18.2109 1.18652C18.573 2.16487 18.6888 2.43094 18.8789 2.62109C19.0691 2.81124 19.3351 2.92704 20.3135 3.28906L21.0107 3.54688C21.3048 3.65592 21.5 3.93635 21.5 4.25C21.5 4.56365 21.3048 4.84408 21.0107 4.95312L20.3135 5.21094C19.3351 5.57296 19.0691 5.68876 18.8789 5.87891C18.6888 6.06906 18.573 6.33513 18.2109 7.31348L17.9531 8.01074C17.8441 8.30479 17.5637 8.5 17.25 8.5C16.9363 8.5 16.6559 8.30479 16.5469 8.01074L16.2891 7.31348C15.927 6.33513 15.8112 6.06906 15.6211 5.87891C15.4309 5.68876 15.1649 5.57296 14.1865 5.21094L13.4893 4.95312C13.1952 4.84408 13 4.56365 13 4.25C13 3.93635 13.1952 3.65592 13.4893 3.54688L14.1865 3.28906C15.1649 2.92704 15.4309 2.81124 15.6211 2.62109C15.8112 2.43094 15.927 2.16487 16.2891 1.18652L16.5469 0.489258C16.6559 0.195207 16.9363 9.17219e-08 17.25 0ZM17.25 2.83301C17.0953 3.16136 16.9202 3.44304 16.6816 3.68164C16.443 3.92024 16.1614 4.09529 15.833 4.25C16.1614 4.40471 16.443 4.57976 16.6816 4.81836C16.9202 5.05696 17.0953 5.33864 17.25 5.66699C17.4047 5.33864 17.5798 5.05696 17.8184 4.81836C18.057 4.57976 18.3386 4.40471 18.667 4.25C18.3386 4.09529 18.057 3.92024 17.8184 3.68164C17.5798 3.44304 17.4047 3.16136 17.25 2.83301Z" fill="#404040"/>
</svg>
