<svg width="22" height="20" viewBox="0 0 22 20" fill="none" xmlns="http://www.w3.org/2000/svg">
<path d="M9.75 11C12.9256 11 15.5 13.5744 15.5 16.75V19.5H0V16.75C0 13.5744 2.57436 11 5.75 11H9.75ZM15.75 11C18.9256 11 21.5 13.5744 21.5 16.75V19.5H17V18H20V16.75C20 14.4028 18.0972 12.5 15.75 12.5H15V11H15.75ZM5.75 12.5C3.40279 12.5 1.5 14.4028 1.5 16.75V18H14V16.75C14 14.4028 12.0972 12.5 9.75 12.5H5.75ZM7.75 0C10.3734 0 12.5 2.12665 12.5 4.75C12.5 7.37335 10.3734 9.5 7.75 9.5C5.12665 9.5 3 7.37335 3 4.75C3 2.12665 5.12665 0 7.75 0ZM13.75 0C16.3734 0 18.5 2.12665 18.5 4.75C18.5 7.37335 16.3734 9.5 13.75 9.5H13V8H13.75C15.5449 8 17 6.54493 17 4.75C17 2.95507 15.5449 1.5 13.75 1.5H13V0H13.75ZM7.75 1.5C5.95507 1.5 4.5 2.95507 4.5 4.75C4.5 6.54493 5.95507 8 7.75 8C9.54493 8 11 6.54493 11 4.75C11 2.95507 9.54493 1.5 7.75 1.5Z" fill="#5F5F5F"/>
</svg>
