<svg width="32" height="32" viewBox="0 0 32 32" fill="none" xmlns="http://www.w3.org/2000/svg">
<g clip-path="url(#clip0_2343_4894)">
<path d="M11.1475 1.05274C7.95019 2.16191 5.19285 4.26716 3.28046 7.05924C1.36808 9.85133 0.401465 13.1831 0.522592 16.5652C0.643719 19.9472 1.84621 23.2013 3.95343 25.8494C6.06065 28.4975 8.96153 30.4001 12.23 31.2777C14.8798 31.9615 17.656 31.9915 20.32 31.3652C22.7333 30.8232 24.9644 29.6637 26.795 28.0002C28.7002 26.2161 30.0831 23.9464 30.795 21.4352C31.5688 18.7044 31.7065 15.8326 31.1975 13.0402H16.3175V19.2127H24.935C24.7628 20.1972 24.3937 21.1368 23.8499 21.9753C23.306 22.8138 22.5986 23.534 21.77 24.0927C20.7177 24.7888 19.5315 25.2572 18.2875 25.4677C17.0398 25.6997 15.7601 25.6997 14.5125 25.4677C13.248 25.2063 12.0517 24.6844 11 23.9352C9.31036 22.7392 8.04168 21.0401 7.37499 19.0802C6.69702 17.0837 6.69702 14.9193 7.37499 12.9227C7.84955 11.5233 8.63407 10.2491 9.66999 9.19524C10.8555 7.96711 12.3563 7.08923 14.0079 6.65793C15.6594 6.22663 17.3979 6.25857 19.0325 6.75024C20.3094 7.14222 21.4771 7.82708 22.4425 8.75024C23.4142 7.78357 24.3842 6.81441 25.3525 5.84274C25.8525 5.32024 26.3975 4.82274 26.89 4.28774C25.4164 2.91643 23.6867 1.84938 21.8 1.14774C18.3642 -0.099786 14.6049 -0.133312 11.1475 1.05274Z" fill="white"/>
<path d="M11.1474 1.05249C14.6046 -0.134368 18.3639 -0.101725 21.7999 1.14499C23.687 1.8514 25.4159 2.92358 26.8874 4.29999C26.3874 4.83499 25.8599 5.33499 25.3499 5.85499C24.3799 6.82332 23.4108 7.78832 22.4424 8.74999C21.4771 7.82683 20.3094 7.14197 19.0324 6.74999C17.3984 6.25659 15.66 6.22281 14.008 6.65235C12.356 7.08188 10.8542 7.95814 9.66744 9.18499C8.63153 10.2388 7.84701 11.513 7.37244 12.9125L2.18994 8.89999C4.04496 5.22139 7.25681 2.40755 11.1474 1.05249Z" fill="#E33629"/>
<path d="M0.81512 12.8749C1.09367 11.4944 1.55613 10.1575 2.19012 8.8999L7.37262 12.9224C6.69466 14.9189 6.69466 17.0834 7.37262 19.0799C5.64595 20.4132 3.91845 21.7532 2.19012 23.0999C0.602996 19.9407 0.118951 16.3412 0.81512 12.8749Z" fill="#F8BD00"/>
<path d="M16.3175 13.0376H31.1975C31.7065 15.8299 31.5688 18.7018 30.795 21.4326C30.0831 23.9438 28.7002 26.2135 26.795 27.9976C25.1225 26.6926 23.4425 25.3976 21.77 24.0926C22.5992 23.5333 23.3069 22.8123 23.8508 21.9729C24.3946 21.1335 24.7634 20.193 24.935 19.2076H16.3175C16.315 17.1526 16.3175 15.0951 16.3175 13.0376Z" fill="#587DBD"/>
<path d="M2.1875 23.1001C3.91583 21.7667 5.64333 20.4267 7.37 19.0801C8.03802 21.0406 9.30851 22.7398 11 23.9351C12.055 24.6807 13.2538 25.1984 14.52 25.4551C15.7676 25.6871 17.0474 25.6871 18.295 25.4551C19.539 25.2445 20.7252 24.7762 21.7775 24.0801C23.45 25.3851 25.13 26.6801 26.8025 27.9851C24.9722 29.6494 22.741 30.8098 20.3275 31.3526C17.6635 31.9788 14.8873 31.9488 12.2375 31.2651C10.1418 30.7055 8.18419 29.7191 6.4875 28.3676C4.69165 26.9418 3.22489 25.145 2.1875 23.1001Z" fill="#319F43"/>
</g>
<defs>
<clipPath id="clip0_2343_4894">
<rect width="32" height="32" fill="white"/>
</clipPath>
</defs>
</svg>
