<svg width="22" height="22" viewBox="0 0 22 22" fill="none" xmlns="http://www.w3.org/2000/svg">
<path d="M10.75 0C11.9909 6.52913e-05 13 1.00906 13 2.25C13 2.65773 12.8885 3.03905 12.6982 3.36914C13.4309 3.65295 14.1296 4.09925 14.752 4.71191C15.593 5.53991 16.6411 5.99609 17.7021 5.99609H18.75C19.1639 5.99617 19.4999 6.33221 19.5 6.74609C19.5 7.16005 19.1639 7.49602 18.75 7.49609H18.4668L20.2783 11.1201C20.6575 11.2271 20.9763 11.4288 21.2236 11.8125C21.7555 12.6404 21.4223 13.3107 21.0693 14.0186C20.3073 15.5486 18.844 16.5 17.251 16.5H17.25C15.6571 16.4999 14.1946 15.5485 13.4326 14.0186C13.0796 13.3096 12.7464 12.6404 13.2773 11.8135C13.5267 11.4263 13.8482 11.2236 14.2314 11.1172L16.1582 7.26465C15.2625 6.99351 14.4198 6.48962 13.7002 5.78027C13.041 5.13175 12.2823 4.72957 11.5 4.57324V20H13.75C14.164 20 14.5 20.336 14.5 20.75C14.5 21.164 14.164 21.5 13.75 21.5H7.75C7.336 21.5 7 21.164 7 20.75C7.00001 20.336 7.336 20 7.75 20H10V4.57227C9.21756 4.72853 8.45908 5.13162 7.7998 5.78027C7.08206 6.48713 6.24172 6.98983 5.34863 7.26172L7.27832 11.1201C7.6575 11.2271 7.97627 11.4288 8.22363 11.8125C8.75556 12.6404 8.42228 13.3107 8.06934 14.0186C7.30734 15.5486 5.84398 16.5 4.25098 16.5H4.25C2.65714 16.4999 1.19456 15.5484 0.432617 14.0186C0.0796544 13.3096 -0.253606 12.6404 0.277344 11.8135C0.526888 11.426 0.848842 11.2235 1.23242 11.1172L3.04297 7.49609H2.75C2.336 7.49609 2 7.16009 2 6.74609C2.00008 6.33216 2.33605 5.99609 2.75 5.99609H3.79785C4.85885 5.99609 5.90705 5.53991 6.74805 4.71191C7.36996 4.09972 8.0677 3.65296 8.7998 3.36914C8.60979 3.03922 8.5 2.65742 8.5 2.25C8.50003 1.00902 9.50902 0 10.75 0ZM2.70898 12.5C2.01321 12.5 1.61505 12.506 1.53906 12.625C1.50517 12.6779 1.50098 12.7012 1.50098 12.7012C1.49337 12.7846 1.65653 13.1119 1.77539 13.3506C2.28233 14.3675 3.23011 14.9999 4.25098 15C5.27198 15 6.22054 14.3676 6.72754 13.3506C6.84642 13.1118 7.00868 12.7855 7.00098 12.7012C7.00098 12.7012 6.99691 12.678 6.96191 12.624C6.88564 12.5062 6.48765 12.5 5.79199 12.5H2.70898ZM15.709 12.5C15.0132 12.5 14.6151 12.506 14.5391 12.625C14.5051 12.6779 14.501 12.7012 14.501 12.7012C14.4934 12.7846 14.6565 13.1119 14.7754 13.3506C15.2823 14.3675 16.2301 14.9999 17.251 15C18.272 15 19.2205 14.3676 19.7275 13.3506C19.8464 13.1118 20.0087 12.7855 20.001 12.7012C20.001 12.7012 19.9969 12.678 19.9619 12.624C19.8857 12.5061 19.4877 12.5 18.792 12.5H15.709ZM2.96777 11H5.54004L4.25391 8.42773L2.96777 11ZM15.9678 11H18.54L17.2539 8.42773L15.9678 11ZM10.75 1.5C10.336 1.5 10 1.83602 10 2.25C10 2.664 10.336 3 10.75 3C11.1639 2.99993 11.5 2.66396 11.5 2.25C11.5 1.83606 11.1639 1.50007 10.75 1.5Z" fill="#B9905A"/>
</svg>
