<svg width="18" height="22" viewBox="0 0 18 22" fill="none" xmlns="http://www.w3.org/2000/svg">
<path d="M10.75 0C13.688 0 15.3063 0.000374968 16.4043 1.10938C17.4999 2.21434 17.5 3.84417 17.5 6.80371V17.3965C17.5 19.121 17.5 20.0718 16.6953 20.5908C15.6426 21.2687 14.4196 20.4134 13.6875 19.9014C13.5716 19.8204 13.4619 19.7434 13.3789 19.6914C13.1239 19.5304 12.8338 19.3469 12.7578 19.3389H12.7568C12.6795 19.3391 12.331 19.5595 12.1211 19.6914L10.21 20.8965C9.6341 21.2604 9.25393 21.5 8.75 21.5V21.501C8.24606 21.501 7.8659 21.2614 7.29102 20.8984L5.37891 19.6924C5.12391 19.5314 4.83381 19.3478 4.75781 19.3398H4.75684C4.67954 19.3401 4.33096 19.5605 4.12109 19.6924C4.03914 19.7444 3.92937 19.8214 3.81348 19.9023C3.08248 20.4143 1.85766 21.2698 0.805664 20.5918C7.03906e-05 20.0718 8.25484e-09 19.1219 0 17.3965V6.80371C2.00999e-09 3.84419 7.47442e-05 2.21434 1.09668 1.10938C2.19468 0.000374981 3.813 0 6.75 0H10.75ZM6.75 1.50098C4.13303 1.50098 2.82012 1.50104 2.16211 2.16602C1.50013 2.83299 1.5 4.16088 1.5 6.80469V17.3975C1.5 18.2562 1.50001 19.1428 1.62695 19.3369C1.72995 19.3879 2.04612 19.3088 2.95312 18.6738C3.08406 18.5819 3.20834 18.4958 3.32129 18.4238C3.85611 18.0869 4.24704 17.8409 4.75391 17.8408H4.80859C5.28151 17.8568 5.63886 18.0819 6.17871 18.4229L8.08984 19.6279C8.36184 19.7999 8.669 19.993 8.75 20C8.831 19.993 9.1382 19.7989 9.4082 19.6289L11.3213 18.4229C11.875 18.074 12.2739 17.822 12.8086 17.8408C13.2815 17.8568 13.6389 18.0819 14.1787 18.4229C14.2917 18.4938 14.4159 18.5809 14.5469 18.6729C15.4529 19.3069 15.769 19.3869 15.873 19.3359C16 19.1419 16 18.2552 16 17.3975V6.80469C16 4.15988 15.9998 2.83299 15.3389 2.16602C14.6809 1.50106 13.3669 1.50098 10.75 1.50098H6.75ZM11.25 7C11.6642 7 12 7.33579 12 7.75V7.99316C12.6094 8.19014 13.1199 8.62366 13.3604 9.21875C13.5155 9.60281 13.3294 10.0402 12.9453 10.1953C12.5614 10.3503 12.125 10.1649 11.9697 9.78125C11.8923 9.58952 11.6364 9.375 11.25 9.375C10.7386 9.375 10.5 9.71778 10.5 9.9375C10.5 10.1572 10.7386 10.5 11.25 10.5C12.3954 10.5 13.5 11.3325 13.5 12.5625C13.5 13.5176 12.834 14.2328 12 14.5049V14.75C12 15.1642 11.6642 15.5 11.25 15.5C10.8358 15.5 10.5 15.1642 10.5 14.75V14.5068C9.89055 14.3099 9.3801 13.8763 9.13965 13.2812C8.98451 12.8972 9.17062 12.4598 9.55469 12.3047C9.93855 12.1497 10.375 12.3351 10.5303 12.7188C10.6077 12.9105 10.8636 13.125 11.25 13.125C11.7614 13.125 12 12.7822 12 12.5625C12 12.3428 11.7614 12 11.25 12C10.1046 12 9 11.1675 9 9.9375C9 8.9824 9.66604 8.26721 10.5 7.99512V7.75C10.5 7.33579 10.8358 7 11.25 7ZM6.75 8C7.16421 8 7.5 8.33579 7.5 8.75C7.5 9.16421 7.16421 9.5 6.75 9.5H4.75C4.33579 9.5 4 9.16421 4 8.75C4 8.33579 4.33579 8 4.75 8H6.75ZM12.75 4C13.1642 4 13.5 4.33579 13.5 4.75C13.5 5.16421 13.1642 5.5 12.75 5.5H4.75C4.33579 5.5 4 5.16421 4 4.75C4 4.33579 4.33579 4 4.75 4H12.75Z" fill="#5F5F5F"/>
</svg>
