<svg width="15" height="15" viewBox="0 0 15 15" fill="none" xmlns="http://www.w3.org/2000/svg">
<path d="M7.16699 0C8.08735 0.000230663 8.83283 0.745641 8.83301 1.66602C8.83301 1.90068 8.78429 2.12546 8.69629 2.32812C9.14296 2.52613 9.56784 2.81407 9.95117 3.19141C10.4977 3.72851 11.151 3.99987 11.8008 4H12.5C12.8678 4.00005 13.1668 4.2982 13.167 4.66602C13.167 5.03398 12.868 5.33295 12.5 5.33301H12.3926L13.5137 7.57617C13.7632 7.64756 13.9837 7.78758 14.1475 8.04199C14.3135 8.29999 14.3689 8.56459 14.3115 8.85059C14.2682 9.06719 14.1578 9.28791 14.0625 9.47852C14.0572 9.48979 14.0512 9.50142 14.0459 9.5127C13.5652 10.4779 12.6199 11.166 11.5 11.166C10.3801 11.166 9.43482 10.4778 8.9541 9.5127C8.9488 9.50144 8.94281 9.48977 8.9375 9.47852C8.8422 9.28792 8.73184 9.06718 8.68848 8.85059C8.63117 8.56473 8.68576 8.29987 8.85156 8.04199C9.0152 7.78784 9.23614 7.64762 9.48535 7.57617L10.6924 5.16211C10.0755 4.96993 9.50276 4.62114 9.01562 4.1416C8.65634 3.7877 8.25227 3.55002 7.83301 3.42871V13.333H9.16699C9.5348 13.3332 9.83301 13.6321 9.83301 14C9.83283 14.3677 9.53469 14.6658 9.16699 14.666H5.16699C4.7991 14.666 4.50018 14.3679 4.5 14C4.5 13.632 4.79899 13.333 5.16699 13.333H6.5V3.42871C6.08071 3.55003 5.67669 3.78767 5.31738 4.1416C4.82999 4.6214 4.25687 4.97 3.63965 5.16211L4.84668 7.57617C5.09632 7.64753 5.31758 7.78748 5.48145 8.04199C5.64729 8.29989 5.70184 8.5647 5.64453 8.85059C5.60116 9.06717 5.4908 9.28793 5.39551 9.47852C5.39021 9.48975 5.38419 9.50146 5.37891 9.5127C4.89817 10.4778 3.95284 11.166 2.83301 11.166C1.7132 11.1659 0.767776 10.4778 0.287109 9.5127C0.281792 9.5014 0.275829 9.48981 0.270508 9.47852C0.175199 9.2879 0.0648406 9.0672 0.0214844 8.85059C-0.0358423 8.56462 0.019592 8.29996 0.185547 8.04199C0.34937 7.78754 0.569776 7.64657 0.819336 7.5752L1.94043 5.33301H1.83301C1.46511 5.33289 1.16699 5.03394 1.16699 4.66602C1.16717 4.29824 1.46522 4.00012 1.83301 4H2.53223C3.18203 3.99991 3.83531 3.7285 4.38184 3.19141C4.76516 2.81408 5.19006 2.52612 5.63672 2.32812C5.54872 2.12546 5.5 1.90068 5.5 1.66602C5.50018 0.745499 6.24643 0 7.16699 0ZM1.97559 7.5H3.69141L2.83301 5.78418L1.97559 7.5ZM10.6416 7.5H12.3584L11.5 5.78418L10.6416 7.5ZM7.16699 1.33301C6.9831 1.33301 6.83318 1.48216 6.83301 1.66602C6.83301 1.85002 6.98299 2 7.16699 2C7.3508 1.99977 7.5 1.84987 7.5 1.66602C7.49982 1.48231 7.35069 1.33324 7.16699 1.33301Z" fill="#003E6F"/>
</svg>
