<svg width="17" height="18" viewBox="0 0 17 18" fill="none" xmlns="http://www.w3.org/2000/svg">
<path d="M8.95801 0C12.2686 0 13.9317 -0.000575851 15.0908 1.15918C16.2499 2.31748 16.25 3.9804 16.25 7.29102V10.625C16.25 13.9355 16.2497 15.5977 15.0898 16.7568C13.9315 17.916 12.2688 17.916 8.95801 17.916H7.29199C3.98147 17.916 2.31848 17.9165 1.16016 16.7568C0.000194194 15.5985 8.17058e-10 13.9356 0 10.625V7.29102C8.19922e-10 3.98049 0.000285768 2.3183 1.16016 1.15918C2.31849 1.2999e-05 3.98116 0 7.29199 0H8.95801ZM7.29199 1.25C4.32616 1.25 2.83645 1.24964 2.04395 2.04297C1.24989 2.83629 1.25 4.32467 1.25 7.29102V10.625C1.25 13.5912 1.2499 15.0795 2.04297 15.8721C2.8363 16.6662 4.32533 16.666 7.29199 16.666H8.95801C11.9238 16.666 13.4136 16.6664 14.2061 15.873C15.0001 15.0797 15 13.5913 15 10.625V7.29102C15 4.32483 15.0001 2.83647 14.207 2.04395C13.4137 1.24978 11.9247 1.25 8.95801 1.25H7.29199ZM11.458 13.333C11.803 13.333 12.083 13.613 12.083 13.958C12.083 14.303 11.803 14.583 11.458 14.583H4.79199C4.44699 14.583 4.16699 14.303 4.16699 13.958C4.16699 13.613 4.44699 13.333 4.79199 13.333H11.458ZM12.2559 4.14648C12.6008 4.14648 12.8807 4.42663 12.8809 4.77148C12.8809 5.11648 12.6009 5.39648 12.2559 5.39648H12.1211C12.8169 6.12982 13.7742 7.29522 13.2051 8.45605C12.9459 8.98353 12.4301 9.61227 11.4443 9.6123C10.4586 9.6123 9.97402 8.98451 9.71484 8.45703C9.13984 7.28536 10.1067 6.09732 10.7676 5.39648H8.76367V10.0137C9.0177 10.0929 9.20215 10.3305 9.20215 10.6104C9.20204 10.9551 8.9219 11.2351 8.57715 11.2354L8.57617 11.2363H7.69336C7.34851 11.2363 7.06855 10.9561 7.06836 10.6113C7.06836 10.3288 7.25603 10.0902 7.5127 10.0127V5.39746H5.48145C6.17645 6.13079 7.1346 7.29703 6.56543 8.45703C6.30629 8.98444 5.7902 9.61309 4.80469 9.61328C3.81903 9.61328 3.33537 8.98448 3.07617 8.45703C2.50117 7.28453 3.46724 6.09732 4.12891 5.39648H3.99902C3.65414 5.39635 3.37402 5.1164 3.37402 4.77148C3.3742 4.42672 3.65425 4.14662 3.99902 4.14648H12.2559ZM4.80762 6.51172C4.42345 6.95755 4.01908 7.54125 4.19824 7.90625C4.42218 8.36236 4.6522 8.3623 4.80469 8.3623C4.95718 8.3623 5.21934 8.36271 5.44434 7.90527C5.6185 7.55027 5.20595 6.96755 4.80762 6.51172ZM11.4453 6.5127C11.0611 6.95853 10.6568 7.54208 10.8359 7.90625C11.0609 8.36262 11.2909 8.3623 11.4434 8.3623C11.5959 8.3623 11.858 8.36277 12.083 7.90527C12.2579 7.54947 11.8446 6.9675 11.4463 6.51172L11.4453 6.5127Z" fill="#5F5F5F"/>
</svg>
