<svg width="24" height="24" viewBox="0 0 24 24" fill="none" xmlns="http://www.w3.org/2000/svg">
<path d="M12 1.25C13.241 1.25 14.25 2.259 14.25 3.5C14.25 3.90759 14.1394 4.28913 13.9492 4.61914C14.6816 4.90296 15.3798 5.34948 16.002 5.96191C16.843 6.78991 17.8911 7.24609 18.9521 7.24609H20C20.414 7.24609 20.7499 7.58216 20.75 7.99609C20.75 8.41009 20.414 8.74609 20 8.74609H19.7168L21.5283 12.3701C21.9076 12.4771 22.2262 12.6796 22.4736 13.0635C23.0051 13.8911 22.6722 14.5608 22.3193 15.2686C21.5573 16.7986 20.094 17.75 18.501 17.75H18.5C16.9072 17.7498 15.4446 16.7984 14.6826 15.2686C14.3297 14.5597 13.9967 13.8912 14.5273 13.0645C14.7767 12.6771 15.0982 12.4736 15.4814 12.3672L17.4082 8.51465C16.5125 8.2435 15.6698 7.73962 14.9502 7.03027C14.291 6.38166 13.5324 5.97855 12.75 5.82227L12.75 21.25H15C15.414 21.25 15.75 21.586 15.75 22C15.75 22.414 15.414 22.75 15 22.75H9C8.586 22.75 8.25 22.414 8.25 22C8.25 21.586 8.586 21.25 9 21.25H11.25L11.25 5.82227C10.4676 5.97855 9.70905 6.38166 9.0498 7.03027C8.33205 7.73713 7.49173 8.23985 6.59863 8.51172L8.52832 12.3701C8.90758 12.4771 9.22624 12.6796 9.47363 13.0635C10.0051 13.8911 9.67221 14.5608 9.31934 15.2686C8.55734 16.7986 7.09398 17.75 5.50098 17.75H5.5C3.90715 17.7498 2.44455 16.7984 1.68262 15.2686C1.32971 14.5597 0.996711 13.8912 1.52734 13.0645C1.77692 12.6768 2.09874 12.4735 2.48242 12.3672L4.29297 8.74609H4C3.586 8.74609 3.25 8.41009 3.25 7.99609C3.25008 7.58216 3.58605 7.24609 4 7.24609H5.04785C6.10885 7.24609 7.15705 6.78991 7.99805 5.96191C8.61994 5.34972 9.31771 4.90297 10.0498 4.61914C9.8598 4.28923 9.75 3.90742 9.75 3.5C9.75 2.259 10.759 1.25 12 1.25ZM3.95898 13.75C3.26323 13.75 2.86505 13.756 2.78906 13.875C2.75515 13.9279 2.75098 13.9512 2.75098 13.9512C2.7433 14.0345 2.90651 14.3618 3.02539 14.6006C3.53233 15.6175 4.48013 16.2498 5.50098 16.25C6.52198 16.25 7.47054 15.6176 7.97754 14.6006C8.09645 14.3618 8.25875 14.0354 8.25098 13.9512C8.25098 13.9512 8.24691 13.928 8.21191 13.874C8.13556 13.7562 7.73755 13.75 7.04199 13.75L3.95898 13.75ZM16.959 13.75C16.2632 13.75 15.865 13.756 15.7891 13.875C15.7552 13.9279 15.751 13.9512 15.751 13.9512C15.7433 14.0345 15.9065 14.3618 16.0254 14.6006C16.5323 15.6175 17.4801 16.2498 18.501 16.25C19.522 16.25 20.4705 15.6176 20.9775 14.6006C21.0964 14.3618 21.2588 14.0354 21.251 13.9512C21.251 13.9512 21.2469 13.928 21.2119 13.874C21.1356 13.7562 20.7376 13.75 20.042 13.75L16.959 13.75ZM4.21777 12.25L6.79004 12.25L5.50391 9.67773L4.21777 12.25ZM17.2178 12.25L19.79 12.25L18.5039 9.67773L17.2178 12.25ZM12 2.75C11.586 2.75 11.25 3.086 11.25 3.5C11.25 3.914 11.586 4.25 12 4.25C12.414 4.25 12.75 3.914 12.75 3.5C12.75 3.086 12.414 2.75 12 2.75Z" fill="#5F5F5F"/>
</svg>
