<svg width="18" height="22" viewBox="0 0 18 22" fill="none" xmlns="http://www.w3.org/2000/svg">
<path d="M8.75 0C11.6495 0 14 2.3505 14 5.25V7.20898C15.6908 7.61274 16.9891 9.04892 17.2256 10.8057C17.3737 11.9059 17.5 13.062 17.5 14.25C17.5 15.438 17.3737 16.5941 17.2256 17.6943C16.954 19.7113 15.2827 21.3058 13.2246 21.4004C11.7962 21.4661 10.3458 21.5 8.75 21.5C7.15423 21.5 5.70376 21.4661 4.27539 21.4004C2.21733 21.3058 0.545984 19.7113 0.274414 17.6943C0.126287 16.5941 1.35213e-07 15.438 0 14.25C0 13.062 0.126287 11.9059 0.274414 10.8057C0.510941 9.04892 1.80918 7.61274 3.5 7.20898V5.25C3.5 2.3505 5.8505 0 8.75 0ZM8.75 8.5C7.17645 8.5 5.74855 8.53405 4.34375 8.59863C3.03504 8.65898 1.93908 9.68174 1.76074 11.0049C1.61537 12.0846 1.5 13.1629 1.5 14.25C1.5 15.3371 1.61537 16.4154 1.76074 17.4951C1.93908 18.8183 3.03504 19.841 4.34375 19.9014C5.74855 19.9659 7.17645 20 8.75 20C10.3236 20 11.7514 19.9659 13.1562 19.9014C14.465 19.841 15.5609 18.8183 15.7393 17.4951C15.8846 16.4154 16 15.3371 16 14.25C16 13.1629 15.8846 12.0846 15.7393 11.0049C15.5609 9.68174 14.465 8.65898 13.1562 8.59863C11.7514 8.53405 10.3236 8.5 8.75 8.5ZM4.75 13.2422C5.30228 13.2422 5.75 13.6899 5.75 14.2422V14.252C5.75 14.8042 5.30228 15.252 4.75 15.252C4.19772 15.252 3.75 14.8042 3.75 14.252V14.2422C3.75 13.6899 4.19772 13.2422 4.75 13.2422ZM8.75 13.2422C9.30229 13.2422 9.75 13.6899 9.75 14.2422V14.252C9.75 14.8042 9.30229 15.252 8.75 15.252C8.19771 15.252 7.75 14.8042 7.75 14.252V14.2422C7.75 13.6899 8.19771 13.2422 8.75 13.2422ZM12.75 13.2422C13.3023 13.2422 13.75 13.6899 13.75 14.2422V14.252C13.75 14.8042 13.3023 15.252 12.75 15.252C12.1977 15.252 11.75 14.8042 11.75 14.252V14.2422C11.75 13.6899 12.1977 13.2422 12.75 13.2422ZM8.75 1.5C6.67893 1.5 5 3.17893 5 5.25V7.07031C6.19677 7.02459 7.42314 7 8.75 7C10.0769 7 11.3032 7.02459 12.5 7.07031V5.25C12.5 3.17893 10.8211 1.5 8.75 1.5Z" fill="#5F5F5F"/>
</svg>
