<svg width="18" height="17" viewBox="0 0 18 17" fill="none" xmlns="http://www.w3.org/2000/svg">
<path d="M14.3755 9.1665C14.6368 9.16668 14.8707 9.32956 14.9614 9.57471L15.1763 10.1558C15.4779 10.9709 15.5745 11.1926 15.7329 11.3511C15.8913 11.5093 16.1135 11.6053 16.9282 11.9067L17.5083 12.1226C17.7536 12.2133 17.9165 12.447 17.9165 12.7085C17.9164 12.9699 17.7535 13.2037 17.5083 13.2944L16.9282 13.5093C16.1131 13.8109 15.8914 13.9075 15.7329 14.0659C15.5745 14.2244 15.478 14.4459 15.1763 15.2612L14.9614 15.8423C14.8706 16.0872 14.6367 16.2493 14.3755 16.2495C14.1141 16.2495 13.8794 16.0874 13.7886 15.8423L13.5737 15.2612C13.2722 14.4465 13.1763 14.2244 13.0181 14.0659C12.8596 13.9075 12.6378 13.8109 11.8228 13.5093L11.2417 13.2944C10.9965 13.2037 10.8336 12.9699 10.8335 12.7085C10.8335 12.447 10.9964 12.2133 11.2417 12.1226L11.8228 11.9067C12.6376 11.6052 12.8596 11.5095 13.0181 11.3511C13.1765 11.1926 13.2722 10.9707 13.5737 10.1558L13.7886 9.57471C13.8793 9.32943 14.114 9.1665 14.3755 9.1665ZM6.5249 0.0307617C8.15244 -0.0101278 9.76455 -0.0101312 11.3921 0.0307617L11.4399 0.0317383C12.7106 0.0636459 13.7338 0.0892245 14.5532 0.231934C15.4109 0.381344 16.1078 0.668197 16.6968 1.25928C17.2834 1.84808 17.5688 2.53541 17.7153 3.37939C17.8549 4.18304 17.8765 5.1808 17.9028 6.4165L17.9038 6.46533C17.9215 7.29559 17.9215 8.1214 17.9038 8.95166C17.8963 9.29658 17.6101 9.57034 17.2651 9.56299C16.9201 9.55555 16.6465 9.26937 16.6538 8.92432C16.6711 8.1119 16.6711 7.30411 16.6538 6.4917C16.6295 5.35312 16.6096 4.51829 16.5229 3.85791L11.8394 6.51318C10.7617 7.12379 9.88553 7.49658 8.9585 7.49658C8.03165 7.49647 7.15607 7.12366 6.07861 6.51318L1.39307 3.85791C1.30645 4.51827 1.28746 5.35318 1.26318 6.4917C1.24586 7.30412 1.24586 8.1119 1.26318 8.92432C1.29082 10.2203 1.31168 11.1232 1.43311 11.8228C1.54941 12.4925 1.74908 12.9176 2.10498 13.2749C2.45853 13.6298 2.889 13.8325 3.57861 13.9526C4.29624 14.0776 5.22582 14.1028 6.55615 14.1362C7.63679 14.1634 8.7108 14.172 9.78662 14.1626C10.1316 14.1598 10.4135 14.4377 10.4165 14.7827C10.4194 15.1277 10.1424 15.4095 9.79736 15.4126C8.70735 15.4221 7.61953 15.4137 6.5249 15.3862L6.47607 15.3843C5.20563 15.3524 4.18309 15.3268 3.36377 15.1841C2.50599 15.0347 1.8092 14.748 1.22021 14.1567C0.63363 13.5679 0.348228 12.8806 0.20166 12.0366C0.0621812 11.2331 0.0404841 10.2358 0.0141602 9.00049L0.0131836 8.95166C-0.00452252 8.1214 -0.00452066 7.2956 0.0131836 6.46533L0.0141602 6.4165C0.0404905 5.1808 0.0621021 4.18304 0.20166 3.37939C0.348231 2.53542 0.633644 1.84808 1.22021 1.25928C1.80917 0.668213 2.50607 0.381328 3.36377 0.231934C4.1832 0.0892259 5.20636 0.0636431 6.47705 0.0317383L6.5249 0.0307617ZM14.3755 11.5278C14.2466 11.8014 14.1006 12.0361 13.9019 12.2349C13.7031 12.4336 13.4683 12.5796 13.1948 12.7085C13.4683 12.8374 13.7031 12.9834 13.9019 13.1821C14.1005 13.3809 14.2466 13.6157 14.3755 13.8892C14.5044 13.6155 14.6503 13.381 14.8491 13.1821C15.0479 12.9833 15.2826 12.8374 15.5562 12.7085C15.2827 12.5796 15.0479 12.4335 14.8491 12.2349C14.6504 12.0361 14.5044 11.8013 14.3755 11.5278ZM11.3608 1.27979C9.75423 1.23942 8.16276 1.23942 6.55615 1.27979C5.22587 1.31321 4.29623 1.33843 3.57861 1.46338C2.88905 1.58347 2.45852 1.78626 2.10498 2.14111C1.9607 2.28595 1.84343 2.44284 1.74561 2.62158L6.69482 5.42529C7.74059 6.01782 8.37513 6.24648 8.9585 6.24658C9.542 6.24658 10.1771 6.01801 11.2231 5.42529L16.1704 2.62158C16.0726 2.44298 15.9552 2.28585 15.811 2.14111C15.4576 1.78651 15.0277 1.58342 14.3384 1.46338C13.6208 1.33841 12.6911 1.31321 11.3608 1.27979Z" fill="#5F5F5F"/>
</svg>
