<svg width="16" height="16" viewBox="0 0 16 16" fill="none" xmlns="http://www.w3.org/2000/svg">
<path d="M6.05286 1.8584C7.36259 1.82508 8.6357 1.82508 9.94543 1.8584C12.1041 1.91307 13.2942 1.94389 14.1896 2.83789C15.0859 3.74117 15.1107 4.89925 15.1554 7.00098C15.1694 7.67231 15.1694 8.32476 15.1554 8.99609C15.1107 11.0978 15.0861 12.2553 14.1915 13.1572C13.2949 14.0532 12.1051 14.083 9.94641 14.1377C9.29188 14.1544 8.64599 14.1631 8.00012 14.1631C7.35412 14.1631 6.70752 14.1544 6.05286 14.1377C3.89436 14.083 2.70499 14.0522 1.80969 13.1582C0.913178 12.2549 0.888535 11.0969 0.843872 8.99512C0.829872 8.32378 0.829872 7.67133 0.843872 7C0.888534 4.8982 0.913118 3.74082 1.80774 2.83887C2.7044 1.94289 3.89421 1.91306 6.05286 1.8584ZM9.92004 2.85742C8.62768 2.8241 7.37128 2.8241 6.07825 2.85742C4.05308 2.90875 3.12841 2.93143 2.51575 3.54395C1.90379 4.16123 1.88422 5.05748 1.8429 7.02051C1.8289 7.67717 1.8289 8.3163 1.8429 8.97363C1.88422 10.9366 1.90399 11.8332 2.5177 12.4512C3.12901 13.0618 4.05311 13.0864 6.07825 13.1377C7.37086 13.171 8.62774 13.171 9.92102 13.1377C11.9464 13.0864 12.8709 13.0629 13.4835 12.4502C14.0953 11.8329 14.1141 10.9367 14.1554 8.97363C14.1694 8.31697 14.1694 7.67784 14.1554 7.02051C14.1141 5.05769 14.0953 4.16091 13.4816 3.54297C12.8702 2.9323 11.9454 2.90876 9.92004 2.85742ZM4.23645 5.40723C4.37712 5.16989 4.68369 5.09078 4.92102 5.23145L6.88196 6.3916C7.86321 6.96956 8.13581 6.96947 9.11829 6.3916L11.0792 5.23145C11.3172 5.09103 11.6239 5.1703 11.7638 5.4082C11.9041 5.64611 11.8258 5.95282 11.588 6.09277L9.6261 7.25293C8.97229 7.63812 8.48572 7.83008 7.99915 7.83008C7.51333 7.82995 7.02721 7.63743 6.37415 7.25293L4.41223 6.0918C4.17495 5.95112 4.09583 5.64454 4.23645 5.40723Z" fill="white"/>
</svg>
