<svg width="24" height="24" viewBox="0 0 24 24" fill="none" xmlns="http://www.w3.org/2000/svg">
<path d="M12 1.25C14.2948 1.25 16.4281 1.94527 18.1807 3.12891C17.7469 3.39928 17.4004 3.79654 17.1982 4.27148C15.7204 3.31206 13.9328 2.75 12 2.75C6.86043 2.75 2.75017 6.72859 2.75 11.5664C2.75 13.8954 3.69678 16.0163 5.25293 17.5967C5.72713 18.0781 6.13579 18.8291 5.97461 19.6836V19.6855C5.87072 20.2308 5.69345 20.7564 5.4502 21.248C6.34393 21.2269 7.229 20.9961 8.02246 20.5742L8.03809 20.5664C8.25196 20.4527 8.43497 20.355 8.58398 20.2842C8.72817 20.2157 8.90863 20.1382 9.10352 20.1084C9.29319 20.0794 9.47748 20.0961 9.63086 20.1172C9.78417 20.1382 9.97197 20.1736 10.1865 20.2139L10.2041 20.2178C10.796 20.3289 11.3967 20.3846 11.999 20.3838C17.1387 20.3838 21.25 16.4044 21.25 11.5664C21.25 10.1533 20.8971 8.81471 20.2725 7.62598C20.7698 7.46441 21.196 7.15058 21.502 6.74023C22.2967 8.17788 22.7499 9.8185 22.75 11.5664C22.75 17.2947 17.9048 21.8838 12 21.8838C11.3041 21.8847 10.6101 21.8197 9.92676 21.6914C9.68971 21.6468 9.53885 21.6188 9.42676 21.6035C9.37851 21.5969 9.34848 21.5948 9.33203 21.5938C9.31506 21.6003 9.28172 21.6129 9.22754 21.6387C9.11307 21.693 8.96086 21.7744 8.72754 21.8984C7.29582 22.6598 5.62475 22.9296 4.01367 22.6299C3.75368 22.5814 3.53849 22.3996 3.44727 22.1514C3.35612 21.903 3.40246 21.6252 3.56934 21.4199C4.03709 20.8445 4.35873 20.1513 4.50098 19.4053C4.53946 19.2001 4.4523 18.9213 4.18457 18.6494C2.36978 16.8065 1.25 14.3141 1.25 11.5664C1.25017 5.83822 6.09533 1.25 12 1.25ZM9.33008 21.5908C9.32678 21.5913 9.3235 21.5916 9.32129 21.5918C9.31773 21.5923 9.31543 21.5928 9.31543 21.5928C9.31543 21.5928 9.32081 21.5931 9.33203 21.5938L9.34668 21.5879C9.34668 21.5879 9.34027 21.5892 9.33008 21.5908ZM8.00879 11C8.56108 11 9.00879 11.4477 9.00879 12C9.00879 12.5523 8.56108 13 8.00879 13H8C7.44772 13 7 12.5523 7 12C7 11.4477 7.44772 11 8 11H8.00879ZM12.0049 11C12.5572 11 13.0049 11.4477 13.0049 12C13.0049 12.5523 12.5572 13 12.0049 13H11.9961C11.4438 13 10.9961 12.5523 10.9961 12C10.9961 11.4477 11.4438 11 11.9961 11H12.0049ZM15.999 11C16.5513 11 16.999 11.4477 16.999 12C16.999 12.5523 16.5513 13 15.999 13H15.9902C15.4379 13 14.9902 12.5523 14.9902 12C14.9902 11.4477 15.4379 11 15.9902 11H15.999Z" fill="#5F5F5F"/>
<circle cx="19.5" cy="5.25" r="1.5" fill="#FE5959"/>
</svg>
