<svg width="44" height="44" viewBox="0 0 44 44" fill="none" xmlns="http://www.w3.org/2000/svg">
<rect x="0.5" y="0.5" width="43" height="43" rx="21.5" fill="#EEF8FF"/>
<rect x="0.5" y="0.5" width="43" height="43" rx="21.5" stroke="#0074CC"/>
<path d="M28.4814 20.542C28.9288 20.542 29.2919 20.9003 29.292 21.3428C29.292 25.0546 26.4562 28.112 22.8105 28.5107V29.3555H24.4307C24.8781 29.3555 25.2412 29.7147 25.2412 30.1572C25.2411 30.5996 24.878 30.9579 24.4307 30.958H19.5693C19.122 30.958 18.7589 30.5996 18.7588 30.1572C18.7588 29.7147 19.1219 29.3555 19.5693 29.3555H21.1895V28.5107C17.5438 28.112 14.708 25.0546 14.708 21.3428C14.7081 20.9003 15.0712 20.542 15.5186 20.542C15.9659 20.542 16.329 20.9003 16.3291 21.3428C16.3291 24.4405 18.8678 26.9521 22 26.9521C25.1322 26.9521 27.6709 24.4405 27.6709 21.3428C27.671 20.9003 28.0341 20.542 28.4814 20.542ZM22 13.042C24.2377 13.042 26.1174 14.5757 26.6445 16.6494C26.7065 16.8931 26.7369 17.0149 26.6621 17.1113C26.587 17.2079 26.4518 17.208 26.1816 17.208H23.667C23.3219 17.208 23.0422 17.488 23.042 17.833C23.042 18.1782 23.3218 18.458 23.667 18.458H26.292C26.5275 18.458 26.6456 18.4581 26.7188 18.5312C26.7919 18.6044 26.792 18.7225 26.792 18.958V20.042C26.792 20.2775 26.7919 20.3956 26.7188 20.4688C26.6456 20.5419 26.5275 20.542 26.292 20.542H23.667C23.3218 20.542 23.042 20.8218 23.042 21.167C23.0422 21.512 23.3219 21.792 23.667 21.792H26.1816C26.4518 21.792 26.587 21.7921 26.6621 21.8887C26.7369 21.9851 26.7065 22.1069 26.6445 22.3506C26.1174 24.4243 24.2377 25.958 22 25.958C19.3537 25.958 17.2082 23.8132 17.208 21.167V17.833C17.2082 15.1868 19.3537 13.042 22 13.042Z" fill="#003E6F"/>
</svg>
