<svg width="24" height="24" viewBox="0 0 24 24" fill="none" xmlns="http://www.w3.org/2000/svg">
<path fill-rule="evenodd" clip-rule="evenodd" d="M12.0002 1.25C16.5679 1.25 20.2751 4.94131 20.2751 9.5C20.2752 10.5604 20.3463 11.3606 20.834 12.08C20.9018 12.1785 20.9917 12.3019 21.09 12.4368C21.2607 12.6711 21.4566 12.9399 21.6052 13.1727C21.8674 13.5836 22.1236 14.0791 22.2117 14.6565C22.4991 16.5402 21.1744 17.7598 19.8552 18.3063C18.8725 18.7134 17.8106 19.0344 16.703 19.2693C16.1287 21.2896 14.2293 22.7499 11.9992 22.7499C9.76903 22.7499 7.86944 21.2894 7.29536 19.2689C6.1885 19.034 5.1273 18.7132 4.14519 18.3063C2.82597 17.7598 1.50132 16.5402 1.78867 14.6565C1.87675 14.0791 2.13295 13.5836 2.39519 13.1727C2.54377 12.9399 2.73965 12.6711 2.91039 12.4368C3.00869 12.3019 3.09866 12.1785 3.16646 12.0799C3.65408 11.3606 3.72521 10.5603 3.7253 9.49994C3.72534 4.94128 7.43245 1.25 12.0002 1.25ZM14.9631 19.5634C13.0146 19.8123 10.9837 19.8122 9.03517 19.5631C9.60668 20.5618 10.7127 21.2499 11.9992 21.2499C13.2856 21.2499 14.3916 20.562 14.9631 19.5634ZM12.0002 2.75C8.25617 2.75 5.2253 5.77442 5.2253 9.5C5.22521 10.5824 5.17182 11.7967 4.40628 12.9242C4.27823 13.1106 4.16789 13.2605 4.06337 13.4025C3.92465 13.591 3.79718 13.7642 3.65963 13.9797C3.44639 14.3138 3.31413 14.6034 3.27152 14.8827C3.13357 15.7871 3.71038 16.5026 4.71927 16.9205C8.99824 18.6932 15.0021 18.6932 19.2811 16.9206C20.29 16.5026 20.8668 15.7871 20.7288 14.8827C20.6862 14.6034 20.554 14.3138 20.3407 13.9797C20.2032 13.7642 20.0757 13.591 19.937 13.4025C19.8328 13.261 19.7224 13.1108 19.5965 12.9277C18.8286 11.7967 18.7752 10.5825 18.7751 9.50006C18.7751 5.77448 15.7442 2.75 12.0002 2.75Z" fill="#5F5F5F"/>
</svg>
