<svg width="25" height="25" viewBox="0 0 25 25" fill="none" xmlns="http://www.w3.org/2000/svg">
<path d="M12.333 0C13.2534 2.25508e-07 13.9998 0.745691 14 1.66602V10.666H23C23.9203 10.6662 24.666 11.4126 24.666 12.333C24.666 13.2534 23.9203 13.9998 23 14H14V23C13.9998 23.9203 13.2534 24.666 12.333 24.666C11.4126 24.666 10.6662 23.9203 10.666 23V14H1.66602C0.745691 13.9998 2.25506e-07 13.2534 0 12.333C0 11.4126 0.745691 10.6662 1.66602 10.666H10.666V1.66602C10.6662 0.745691 11.4126 0 12.333 0Z" fill="#003F6F"/>
</svg>
