<svg width="16" height="16" viewBox="0 0 16 16" fill="none" xmlns="http://www.w3.org/2000/svg">
<path d="M7.99963 0.833008C9.76695 0.833017 11.2396 2.18801 11.3864 3.94922L11.4625 4.87891C11.5316 4.88512 11.5988 4.88931 11.6637 4.89746C12.1969 4.96448 12.6512 5.10778 13.0377 5.43555C13.4233 5.76266 13.6404 6.18801 13.7985 6.70508C13.9506 7.20287 14.0627 7.84016 14.2018 8.62891L14.4586 10.0811C14.6519 11.177 14.8056 12.0526 14.8297 12.7451C14.8546 13.459 14.7468 14.0715 14.3287 14.5771C13.9096 15.0841 13.3301 15.3012 12.6285 15.4023C11.9499 15.5002 11.0704 15.5 9.97229 15.5H6.02698C4.92912 15.5 4.05025 15.5002 3.3717 15.4023C2.67014 15.3012 2.09063 15.0841 1.67151 14.5771C1.25345 14.0715 1.14566 13.459 1.17053 12.7451C1.19467 12.0526 1.34836 11.1771 1.54163 10.0811L1.79749 8.62891C1.93656 7.84009 2.04963 7.2029 2.20178 6.70508C2.35985 6.18798 2.57691 5.76266 2.96252 5.43555C3.34907 5.10778 3.80338 4.96448 4.33655 4.89746C4.40083 4.88938 4.46739 4.88508 4.53577 4.87891L4.61292 3.94922C4.75969 2.188 6.23231 0.833008 7.99963 0.833008ZM6.31116 5.83301C5.47994 5.83301 4.90262 5.83409 4.46057 5.88965C4.03298 5.94344 3.79223 6.04288 3.60901 6.19824C3.42534 6.35416 3.28592 6.57815 3.15784 6.99707C3.0257 7.42938 2.92306 8.00646 2.77698 8.83496L2.53381 10.2158C2.33207 11.36 2.19096 12.1663 2.16956 12.7803C2.14868 13.3805 2.24717 13.7036 2.44202 13.9395C2.63602 14.1741 2.92996 14.3279 3.51428 14.4121C4.11321 14.4985 4.91983 14.5 6.06799 14.5H9.93225C11.0803 14.5 11.8871 14.4985 12.486 14.4121C13.0702 14.3278 13.3642 14.1741 13.5582 13.9395C13.753 13.7036 13.8516 13.3804 13.8307 12.7803C13.8093 12.1663 13.6682 11.36 13.4664 10.2158L13.2233 8.83496C13.0772 8.00646 12.9745 7.42938 12.8424 6.99707C12.7142 6.57776 12.5742 6.35418 12.3903 6.19824C12.207 6.04283 11.9665 5.94343 11.5387 5.88965C11.0966 5.83412 10.5193 5.83301 9.68811 5.83301H6.31116ZM10.0455 6.83496C10.3204 6.86026 10.5229 7.10401 10.4977 7.37891C10.3837 8.6175 9.26042 9.5 7.99963 9.5C6.739 9.49982 5.61652 8.61738 5.50256 7.37891C5.47739 7.10414 5.67903 6.86046 5.95374 6.83496C6.22857 6.80967 6.47217 7.01235 6.49768 7.28711C6.55707 7.93252 7.17304 8.49983 7.99963 8.5C8.82641 8.5 9.44317 7.93262 9.50256 7.28711C9.52808 7.01247 9.77084 6.80987 10.0455 6.83496ZM7.99963 1.83301C6.75243 1.83301 5.71361 2.78934 5.60999 4.03223L5.54163 4.83887C5.77113 4.83653 6.01629 4.833 6.27795 4.83301H9.72131C9.98248 4.833 10.2275 4.83655 10.4567 4.83887L10.3893 4.03223C10.2857 2.78935 9.24683 1.83302 7.99963 1.83301Z" fill="white"/>
</svg>
