<svg width="22" height="22" viewBox="0 0 22 22" fill="none" xmlns="http://www.w3.org/2000/svg">
<path d="M12.7285 19.2109C13.0264 18.9234 13.5013 18.931 13.7891 19.2285C14.0766 19.5264 14.069 20.0013 13.7715 20.2891C12.1001 21.9031 9.40088 21.903 7.72949 20.2891C7.43153 20.0014 7.42321 19.5265 7.71094 19.2285C7.99871 18.931 8.4727 18.9234 8.77051 19.2109C9.86046 20.2635 11.6384 20.2632 12.7285 19.2109ZM10.75 0C16.6871 0 21.5 4.81294 21.5 10.75V14.75C21.5 15.0772 21.4565 15.405 21.3691 15.7246C21.206 16.3214 20.8774 16.835 20.5498 17.2637C20.3515 17.5233 20.1113 17.8024 19.8994 18.0479C19.7836 18.1821 19.676 18.3062 19.5889 18.4121C19.5696 18.4355 19.5504 18.459 19.5312 18.4824C19.2903 18.7766 19.0523 19.0672 18.7354 19.2451C18.3863 19.441 17.9832 19.5253 17.5859 19.4932C17.2285 19.4641 16.8871 19.3085 16.5244 19.1426C16.4966 19.1298 16.4686 19.1164 16.4404 19.1035C16.4201 19.0943 16.3981 19.0846 16.375 19.0742C16.0188 18.9151 15.3477 18.6152 15.0918 17.8584C14.9988 17.583 14.9993 17.2885 15 17.0146V12.4854C14.9993 12.2115 14.9988 11.9168 15.0918 11.6416C15.3477 10.8848 16.0189 10.5849 16.375 10.4258C16.3981 10.4154 16.4201 10.4058 16.4404 10.3965C16.4686 10.3837 16.4966 10.3712 16.5244 10.3584C16.8871 10.1925 17.2284 10.0359 17.5859 10.0068C17.9832 9.97474 18.3863 10.0589 18.7354 10.2549C18.9863 10.3957 19.1733 10.5852 19.3086 10.7402C19.3833 10.8257 19.4841 10.9537 19.5576 11.0469C19.5915 11.09 19.6198 11.126 19.6367 11.1465L19.6553 11.1689C19.7768 11.3165 19.891 11.4574 20 11.5908V10.75C20 5.64137 15.8586 1.5 10.75 1.5C5.64137 1.5 1.5 5.64137 1.5 10.75V11.5908C1.60896 11.4574 1.72323 11.3165 1.84473 11.1689L1.86328 11.1465C1.88195 11.1237 1.90141 11.0995 1.92188 11.0742C2.26252 10.655 2.85923 9.92154 3.91406 10.0068C4.2716 10.0359 4.61283 10.1924 4.97559 10.3584C5.0034 10.3712 5.03148 10.3837 5.05957 10.3965C5.08128 10.4064 5.10333 10.4159 5.125 10.4258C5.39768 10.5495 5.66485 10.6712 5.87793 10.8564C6.50079 11.3981 6.50034 12.1129 6.5 12.5264V16.9736C6.50034 17.387 6.50076 18.1019 5.87793 18.6436C5.66485 18.8289 5.39769 18.9506 5.125 19.0742C5.10333 19.0841 5.08128 19.0937 5.05957 19.1035C5.03147 19.1163 5.00341 19.1289 4.97559 19.1416C4.61283 19.3076 4.2716 19.4642 3.91406 19.4932C2.86915 19.5777 2.28338 18.8651 1.93945 18.4463C1.92993 18.4347 1.9203 18.4232 1.91113 18.4121C1.82398 18.3062 1.71646 18.1821 1.60059 18.0479C1.38871 17.8023 1.14855 17.5232 0.950195 17.2637C0.622621 16.835 0.294 16.3214 0.130859 15.7246C0.0435335 15.405 -7.38065e-06 15.0773 0 14.75V10.75C0 4.81294 4.81294 5.57337e-10 10.75 0ZM3.79297 11.502C3.66909 11.4919 3.58979 11.5201 3.49121 11.5938C3.35766 11.6937 3.23216 11.8437 3.02148 12.0996C2.54279 12.681 2.21005 13.0859 1.97266 13.4229C1.74065 13.7522 1.63242 13.9724 1.57812 14.1709C1.4742 14.5513 1.4742 14.9486 1.57812 15.3291C1.66677 15.6533 1.86174 15.9862 2.1416 16.3525C2.3217 16.5882 2.4965 16.7896 2.68066 17.002C2.8041 17.1443 2.93207 17.2922 3.06934 17.459C3.2642 17.6956 3.38611 17.8321 3.50684 17.918C3.59611 17.9814 3.6719 18.0078 3.79297 17.998C3.85256 17.9932 3.93602 17.9671 4.43848 17.7383C4.82164 17.5638 4.86767 17.5342 4.89355 17.5117C4.93832 17.4728 4.95673 17.4404 4.97168 17.3799C4.99364 17.2907 5 17.172 5 16.9453V12.5547C5 12.3278 4.99367 12.2093 4.97168 12.1201C4.95673 12.0596 4.93832 12.0273 4.89355 11.9883C4.86767 11.9658 4.8215 11.9362 4.43848 11.7617C3.93598 11.5329 3.85256 11.5068 3.79297 11.502ZM17.707 11.502C17.6475 11.5068 17.5639 11.5329 17.0615 11.7617C16.8421 11.8616 16.719 11.9194 16.624 11.9883C16.5515 12.0408 16.5276 12.0774 16.5127 12.1211C16.5114 12.1264 16.5077 12.1463 16.5049 12.1924C16.5001 12.2697 16.5 12.373 16.5 12.5547V16.9453C16.5 17.1271 16.5001 17.2303 16.5049 17.3076C16.5077 17.3538 16.5114 17.3736 16.5127 17.3789C16.5276 17.4227 16.5515 17.4592 16.624 17.5117C16.719 17.5806 16.8421 17.6384 17.0615 17.7383C17.5639 17.9671 17.6475 17.9932 17.707 17.998C17.8145 18.0067 17.9185 17.9828 18.001 17.9365C18.039 17.9152 18.0902 17.8724 18.4307 17.459C18.5679 17.2922 18.6959 17.1443 18.8193 17.002C19.0035 16.7896 19.1783 16.5881 19.3584 16.3525C19.6382 15.9862 19.8333 15.6534 19.9219 15.3291C20.0259 14.9486 20.0259 14.5514 19.9219 14.1709C19.8676 13.9724 19.7594 13.7523 19.5273 13.4229C19.29 13.0858 18.9572 12.6811 18.4785 12.0996C18.4101 12.0166 18.3653 11.9587 18.3262 11.9082C18.2792 11.8475 18.2404 11.7972 18.1787 11.7266C18.0918 11.627 18.0362 11.5832 18.001 11.5635C17.9185 11.5172 17.8145 11.4933 17.707 11.502Z" fill="#404040"/>
</svg>
