<svg width="22" height="22" viewBox="0 0 22 22" fill="none" xmlns="http://www.w3.org/2000/svg">
<path d="M10.667 5.33398C11.2411 5.33399 11.7077 5.6047 11.9814 5.79297C12.2893 6.00472 12.579 6.27311 12.832 6.5332C13.3393 7.05455 13.8493 7.70007 14.2422 8.20117L14.2734 8.24121C14.4205 8.42855 14.5997 8.65637 14.7227 8.86035L14.7256 8.86621C14.8127 9.01046 15.215 9.67698 14.8486 10.4326C14.4828 11.1867 13.7145 11.2827 13.5459 11.3037L13.542 11.3047C13.3068 11.3341 13.0193 11.3342 12.7852 11.334H12.0078V20C12.0078 20.7364 11.4112 21.334 10.6748 21.334C9.93843 21.334 9.3418 20.7364 9.3418 20V11.334H8.54883C8.3147 11.3342 8.02715 11.3341 7.79199 11.3047L7.78809 11.3037C7.61949 11.2827 6.85117 11.1867 6.48535 10.4326C6.11899 9.67697 6.52131 9.01046 6.6084 8.86621L6.61133 8.86035C6.73428 8.65638 6.91348 8.42855 7.06055 8.24121L7.0918 8.20117C7.48464 7.70007 7.99471 7.05455 8.50195 6.5332C8.75502 6.27312 9.04474 6.00471 9.35254 5.79297C9.62625 5.6047 10.0929 5.33398 10.667 5.33398ZM20 0C20.7364 0 21.334 0.597605 21.334 1.33398C21.3338 2.0702 20.7363 2.66699 20 2.66699H1.33398C0.597727 2.66699 0.000197444 2.0702 0 1.33398C0 0.597605 0.597605 0 1.33398 0H20Z" fill="#003F6F"/>
</svg>
