<svg width="32" height="32" viewBox="0 0 32 32" fill="none" xmlns="http://www.w3.org/2000/svg">
<g clip-path="url(#clip0_2343_4904)">
<path d="M24.5 0H7.5C3.35786 0 0 3.35786 0 7.5V24.5C0 28.6421 3.35786 32 7.5 32H24.5C28.6421 32 32 28.6421 32 24.5V7.5C32 3.35786 28.6421 0 24.5 0Z" fill="white"/>
<path d="M24.5 0H7.5C3.35786 0 0 3.35786 0 7.5V24.5C0 28.6421 3.35786 32 7.5 32H24.5C28.6421 32 32 28.6421 32 24.5V7.5C32 3.35786 28.6421 0 24.5 0Z" fill="#1D9BF0"/>
<path d="M24.9465 11.4264C24.9603 11.6247 24.9603 11.8231 24.9603 12.0234C24.9603 18.123 20.3168 25.1577 11.8259 25.1577V25.154C9.31752 25.1576 6.86113 24.4392 4.75 23.0846C5.11492 23.1284 5.48117 23.1506 5.84875 23.1512C7.92775 23.1529 9.94696 22.4556 11.5819 21.1714C10.6186 21.1531 9.68514 20.8343 8.91192 20.2596C8.1387 19.6848 7.56438 18.8829 7.26925 17.9657C7.96084 18.0991 8.67383 18.0719 9.35325 17.8862C7.19975 17.4511 5.65037 15.559 5.65037 13.3615V13.303C6.29235 13.6606 7.01085 13.8587 7.74538 13.8807C5.71713 12.5251 5.09188 9.82674 6.31663 7.71699C7.47546 9.1432 8.9214 10.3096 10.5605 11.1405C12.1996 11.9714 13.9951 12.4481 15.8305 12.5397C15.6475 11.752 15.6745 10.9301 15.9089 10.1561C16.1432 9.38215 16.5767 8.68327 17.1659 8.12937C19.0251 6.38162 21.9493 6.47124 23.697 8.32949C24.7308 8.12541 25.7221 7.74643 26.6284 7.20887C26.2838 8.2777 25.5626 9.18497 24.5991 9.76187C25.5142 9.65396 26.4078 9.40901 27.25 9.03524C26.6306 9.96303 25.8505 10.7727 24.9465 11.4264Z" fill="white"/>
</g>
<defs>
<clipPath id="clip0_2343_4904">
<rect width="32" height="32" fill="white"/>
</clipPath>
</defs>
</svg>
