<svg width="22" height="22" viewBox="0 0 22 22" fill="none" xmlns="http://www.w3.org/2000/svg">
<path fill-rule="evenodd" clip-rule="evenodd" d="M10.7498 0C12.1308 0 13.2498 1.119 13.2498 2.5C13.2498 2.852 13.1767 3.18819 13.0447 3.49219C13.7147 3.78917 14.3516 4.22115 14.9265 4.78711C15.7465 5.59311 16.7269 6 17.7019 6H18.7498C19.3018 6 19.7498 6.448 19.7498 7C19.7498 7.552 19.3018 8 18.7498 8H18.5887L20.2703 11.3643C20.6447 11.4713 20.9757 11.6818 21.2215 12.0635C21.4704 12.4504 21.5526 12.8474 21.4666 13.2764C21.4015 13.6012 21.2365 13.9319 21.0935 14.2178C21.0856 14.2346 21.0771 14.2517 21.0691 14.2686C20.3481 15.7166 18.9298 16.75 17.2498 16.75C15.5698 16.75 14.1515 15.7165 13.4305 14.2686C13.4225 14.2517 13.414 14.2346 13.406 14.2178C13.2631 13.9319 13.098 13.6012 13.033 13.2764C12.947 12.8474 13.0292 12.4504 13.2781 12.0635C13.5237 11.6821 13.8543 11.4714 14.2283 11.3643L16.0379 7.74414C15.1128 7.45587 14.2548 6.932 13.5242 6.21289C12.9852 5.68189 12.3788 5.32458 11.7498 5.14258L11.7498 20H13.7498C14.3018 20 14.7498 20.448 14.7498 21C14.7498 21.552 14.3018 22 13.7498 22H7.74979C7.19779 22 6.74979 21.552 6.74979 21C6.74979 20.448 7.19779 20 7.74979 20H9.74979L9.74979 5.14258C9.12079 5.32458 8.51438 5.68189 7.97538 6.21289C7.24452 6.93231 6.38621 7.45692 5.46073 7.74512L7.2703 11.3643C7.64468 11.4713 7.97571 11.6818 8.22147 12.0635C8.47038 12.4504 8.55258 12.8474 8.46659 13.2764C8.40154 13.6012 8.23647 13.9319 8.09354 14.2178C8.08562 14.2346 8.07707 14.2517 8.06913 14.2686C7.34813 15.7166 5.92979 16.75 4.24979 16.75C2.5698 16.75 1.15145 15.7165 0.430455 14.2686C0.422515 14.2517 0.413962 14.2346 0.406041 14.2178C0.263113 13.9319 0.098042 13.6012 0.0329941 13.2764C-0.0529908 12.8474 0.0292138 12.4504 0.278111 12.0635C0.52366 11.6821 0.854315 11.4714 1.22831 11.3643L2.91092 8H2.74979C2.19779 8 1.74979 7.552 1.74979 7C1.74979 6.448 2.19779 6 2.74979 6H3.79764C4.77264 6 5.75303 5.59311 6.57303 4.78711C7.14801 4.22115 7.7849 3.78917 8.45487 3.49219C8.32287 3.18819 8.24979 2.852 8.24979 2.5C8.24979 1.119 9.36879 7.2445e-08 10.7498 0ZM2.96366 11.25L5.53592 11.25L4.24979 8.67676L2.96366 11.25ZM15.9637 11.25L18.5359 11.25L17.2498 8.67676L15.9637 11.25ZM10.7498 2C10.4738 2 10.2498 2.224 10.2498 2.5C10.2498 2.776 10.4738 3 10.7498 3C11.0258 3 11.2498 2.776 11.2498 2.5C11.2498 2.224 11.0258 2 10.7498 2Z" fill="#003F6F"/>
</svg>
