<svg width="20" height="22" viewBox="0 0 20 22" fill="none" xmlns="http://www.w3.org/2000/svg">
<path fill-rule="evenodd" clip-rule="evenodd" d="M10.8 0L8.7 0C6.93 0 5.49002 1.95503e-06 4.37002 0.152002C3.20002 0.310002 2.20998 0.647006 1.42998 1.43101C0.64998 2.21601 0.31 3.20298 0.15 4.37598C0 5.50598 0 6.94202 0 8.72402L0 12.776C0 14.558 0 15.994 0.15 17.124C0.31 18.297 0.64998 19.285 1.42998 20.069C2.20998 20.853 3.20002 21.19 4.37002 21.348C5.49002 21.5 6.93 21.5 8.7 21.5H10.8C12.57 21.5 14.01 21.5 15.13 21.348C16.3 21.19 17.29 20.853 18.07 20.069C18.85 19.285 19.19 18.297 19.35 17.124C19.5 15.994 19.5 14.558 19.5 12.776V8.72402C19.5 6.94202 19.5 5.50598 19.35 4.37598C19.19 3.20298 18.85 2.21601 18.07 1.43101C17.29 0.647006 16.3 0.310002 15.13 0.152002C14.01 1.95503e-06 12.57 0 10.8 0ZM4.2 2.15898C4.33 2.13298 4.46998 2.11001 4.62998 2.08901C5.60998 1.95701 6.90998 1.95498 8.77998 1.95498L10.73 1.95498C12.59 1.95498 13.89 1.95701 14.87 2.08901C15.03 2.11001 15.17 2.13298 15.3 2.15898C15.6 2.21898 15.75 2.24902 15.81 2.39302C15.87 2.53802 15.79 2.67899 15.61 2.96299L15.29 3.473C14.99 3.944 14.8 4.253 14.63 4.479C14.46 4.693 14.35 4.78502 14.25 4.84302C14.14 4.90202 14.01 4.94702 13.74 4.97202C13.45 4.99902 13.09 5 12.53 5L6.97002 5C6.41002 5 6.04996 5.00002 5.75996 4.97202C5.49996 4.94702 5.36 4.90202 5.25 4.84302C5.15 4.78502 5.04002 4.693 4.87002 4.479C4.70002 4.253 4.50996 3.944 4.20996 3.473L3.89004 2.96299C3.72004 2.67899 3.63004 2.53802 3.69004 2.39302C3.75004 2.24902 3.9 2.21898 4.2 2.15898ZM15.28 13.363C15.57 13.655 15.57 14.13 15.28 14.423L12.42 17.28C12.13 17.573 11.66 17.573 11.36 17.28C11.15 17.07 11.09 16.766 11.18 16.502C11.08 16.416 10.96 16.321 10.84 16.217C10.5 15.934 10.1 15.589 9.69004 15.22L6.70996 18.207C6.31996 18.598 5.68004 18.598 5.29004 18.207C4.90004 17.817 4.90004 17.183 5.29004 16.793L8.27998 13.806C7.90998 13.402 7.56998 13 7.27998 12.66C7.17998 12.537 7.08 12.421 7 12.315C6.73 12.407 6.43002 12.348 6.22002 12.137C5.93002 11.845 5.93002 11.37 6.22002 11.077L9.07998 8.22002C9.36998 7.92702 9.84004 7.92702 10.14 8.22002C10.35 8.43002 10.41 8.73405 10.32 8.99805C10.42 9.08405 10.54 9.17901 10.66 9.28301C11.21 9.73901 11.91 10.353 12.53 10.97C13.15 11.586 13.76 12.293 14.22 12.84C14.32 12.963 14.42 13.079 14.5 13.185C14.77 13.093 15.07 13.152 15.28 13.363Z" fill="#003F6F"/>
</svg>
