<svg width="22" height="22" viewBox="0 0 22 22" fill="none" xmlns="http://www.w3.org/2000/svg">
<path d="M18.8506 0.00488281C19.2873 0.0301803 19.6478 0.24606 19.9189 0.510742C20.2042 0.789184 20.4346 1.158 20.6221 1.55957C21.0035 2.37676 21.2724 3.48906 21.418 4.71484C21.4654 5.11406 21.5112 5.49789 21.4971 5.82227C21.4807 6.20011 21.3828 6.58052 21.083 6.91504C20.7744 7.25934 20.3868 7.39351 20.0078 7.4502C19.6713 7.5005 19.2583 7.50007 18.8145 7.5H17.5V17.4512C17.5 18.1598 17.5005 18.7703 17.4355 19.2373C17.3689 19.7161 17.2076 20.2612 16.6943 20.5918C15.936 21.0802 15.0952 20.7421 14.623 20.4951C14.3527 20.3537 14.0985 20.1859 13.8877 20.041L13.3789 19.6914C13.1062 19.5194 12.9549 19.4281 12.8418 19.375C12.817 19.3535 12.7414 19.3249 12.6357 19.3828C12.5216 19.44 12.3757 19.5308 12.1211 19.6914L10.1836 20.9141C9.94905 21.062 9.7267 21.2019 9.52637 21.3008C9.30265 21.4112 9.04931 21.5 8.75 21.5C8.45069 21.5 8.19735 21.4112 7.97363 21.3008C7.7733 21.2019 7.55096 21.062 7.31641 20.9141L5.37891 19.6914C5.12431 19.5308 4.9784 19.44 4.86426 19.3828C4.75866 19.3249 4.68296 19.3535 4.6582 19.375C4.54513 19.4281 4.39377 19.5194 4.12109 19.6914L3.6123 20.041C3.40154 20.1859 3.1473 20.3537 2.87695 20.4951C2.40483 20.7421 1.56402 21.0802 0.805664 20.5918C0.292392 20.2612 0.131094 19.7161 0.0644531 19.2373C-0.000514174 18.7703 -4.28438e-05 18.1598 0 17.4512L0 6.75C-2.00257e-05 5.3694 -0.00020542 4.25767 0.116211 3.38379C0.236964 2.47752 0.494989 1.71454 1.0957 1.1084C1.69734 0.501327 2.45608 0.239465 3.35742 0.117187C4.22473 -0.000460667 5.32735 -1.88564e-05 6.69434 0L18.7656 0C18.7942 0 18.8228 0.00176805 18.8506 0.00488281ZM8.75 5C8.33579 5 8 5.33579 8 5.75V6.08398C7.58594 6.17847 7.20416 6.3501 6.88574 6.58887C6.38174 6.96687 6 7.54679 6 8.25C6 8.95321 6.38174 9.53313 6.88574 9.91113C7.38948 10.2889 8.05122 10.5 8.75 10.5C9.15548 10.5 9.49377 10.6241 9.71387 10.7891C9.93373 10.954 10 11.1248 10 11.25C10 11.3752 9.93373 11.546 9.71387 11.7109C9.49377 11.8759 9.15548 12 8.75 12C8.08181 12 7.65937 11.6794 7.54199 11.4307C7.36541 11.056 6.91864 10.8947 6.54395 11.0713C6.16934 11.2478 6.00916 11.6947 6.18555 12.0693C6.51542 12.7693 7.21137 13.2344 8 13.415V13.75C8 14.1642 8.33579 14.5 8.75 14.5C9.16421 14.5 9.5 14.1642 9.5 13.75V13.416C9.91406 13.3215 10.2958 13.1499 10.6143 12.9111C11.1183 12.5331 11.5 11.9532 11.5 11.25C11.5 10.5468 11.1183 9.96687 10.6143 9.58887C10.1105 9.21113 9.44878 9 8.75 9C8.34452 9 8.00623 8.87587 7.78613 8.71094C7.56627 8.54604 7.5 8.37522 7.5 8.25C7.5 8.12478 7.56627 7.95396 7.78613 7.78906C8.00623 7.62413 8.34452 7.5 8.75 7.5C9.41819 7.5 9.84063 7.82062 9.95801 8.06934C10.1346 8.44403 10.5814 8.60529 10.9561 8.42871C11.3307 8.25217 11.4908 7.8053 11.3145 7.43066C10.9846 6.73068 10.2886 6.26562 9.5 6.08496V5.75C9.5 5.33579 9.16421 5 8.75 5ZM18.8711 1.58398C18.8124 1.52677 18.7259 1.52533 18.666 1.58008C18.6623 1.58364 18.6582 1.58694 18.6543 1.59082C18.643 1.60203 18.633 1.61437 18.6221 1.62598C18.6057 1.64417 18.5872 1.66478 18.5684 1.68848C18.4019 1.89817 18.2193 2.24766 18.0518 2.74609C17.883 3.24831 17.7439 3.86028 17.6475 4.5498C17.6029 4.86827 17.5668 5.20323 17.542 5.55176C17.5372 5.61958 17.5343 5.68801 17.5303 5.75684C17.5256 5.83725 17.5212 5.91829 17.5176 6H18.7656C19.2749 6 19.5739 5.99852 19.7861 5.9668C19.9504 5.94222 19.992 5.9195 19.999 5.75684C20.0071 5.56893 19.9781 5.3082 19.9229 4.8418C19.7902 3.72264 19.5485 2.80674 19.2627 2.19434C19.1191 1.88683 18.9814 1.69168 18.8711 1.58398Z" fill="#003F6F"/>
</svg>
